<ttFont>
<head>
    <!-- Most of this table will be recalculated by the compiler -->
    <tableVersion value="1.0"/>
    <fontRevision value="1.0"/>
    <checkSumAdjustment value="0x16b3b4c7"/>
    <magicNumber value="0x5f0f3cf5"/>
    <flags value="00000000 00000011"/>
    <unitsPerEm value="2048"/>
    <created value="Tue May 30 14:32:27 2017"/>
    <modified value="Wed May 31 02:49:14 2017"/>
    <xMin value="-611"/>
    <yMin value="-524"/>
    <xMax value="2851"/>
    <yMax value="2183"/>
<macStyle value="00000000 00000011"/>
    <lowestRecPPEM value="3"/>
    <fontDirectionHint value="2"/>
    <indexToLocFormat value="0"/>
    <glyphDataFormat value="0"/>
  </head>
          <CharString index="0">
            rmoveto
            131 34 98 96 133 hhcurveto
            135 68 -91 -106 -10 -1 -13 -1 -7 hvcurveto
            -287 -677 rmoveto
            259 196 152 214 55 108 callgsubr
            -86 -33 -83 -58 -114 hhcurveto
            -136 -85 98 142 11 1 11 1 12 hvcurveto
            750 hlineto
            11 51 4 64 52 vvcurveto
            281 -184 179 -277 -339 -232 -277 -362 -294 176 -190 299 vhcurveto
            return
          </CharString>
          <CharString index="1">
            rmoveto
            199 129 79 callgsubr
            -198 -266 -265 -199 -129 148 230 327 198 266 265 hvcurveto
            -141 -1231 rmoveto
            -56 callsubr
            363 -239 258 -392 -440 -335 -367 -503 -364 242 -257 387 hvcurveto
            return
          </CharString>
          <CharString index="2">
            212 rmoveto
            -124 -81 101 151 228 126 171 172 124 80 -100 -152 -226 -126 -173 -171 hvcurveto
            103 887 rmoveto
            -345 -252 -273 -368 -289 193 -193 292 345 252 274 368 288 -193 193 -292 hvcurveto
            return
          </CharString>
          <CharString index="3">
            211 718 -24 rmoveto
            346 236 180 303 64 hvcurveto
            209 984 rlineto
            -304 hlineto
            -195 -917 rlineto
            -179 -39 -123 -100 -169 hhcurveto
            -171 -102 88 142 -3 hvcurveto
            -1 32 4 34 8 37 182 863 rcurveline
            -304 hlineto
            -184 -871 rlineto
            -9 -43 -4 -43 -40 vvcurveto
            -272 1 204 -198 354 hhcurveto
            return
          </CharString>
          <CharString index="4">
            1150 rmoveto
            7 hlineto
            60 -573 rlineto
            -374 hlineto
            428 -577 rmoveto
            303 hlineto
            -186 -53 callsubr
            -356 hlineto
            -816 -36 callgsubr
            323 hlineto
            188 344 rlineto
            508 hlineto
            return
          </CharString>
          <CharString index="5">
            -283 6 239 -166 345 hhcurveto
            361 219 203 269 197 -117 113 -250 75 hvcurveto
            -127 39 rlineto
            -145 43 -59 53 82 vvcurveto
            92 88 80 159 161 101 -79 -115 5 vhcurveto
            283 hlineto
            274 -1 -220 165 -333 hhcurveto
            -322 -229 -181 -272 -197 122 -123 240 -74 hvcurveto
            124 -39 rlineto
            157 -48 52 -47 -87 vvcurveto
            -111 -110 -66 -154 -169 -119 84 119 -16 vhcurveto
            return
          </CharString>
          <CharString index="6">
            rmoveto
            -653 hlineto
            78 351 rlineto
            615 hlineto
            49 239 rlineto
            -615 hlineto
            74 337 rlineto
            652 hlineto
            54 258 rlineto
            -957 -95 callgsubr
            957 hlineto
            return
          </CharString>
          <CharString index="7">
            755 rmoveto
            -148 87 -95 198 -65 vhcurveto
            95 -32 rlineto
            115 -37 33 -25 -51 vvcurveto
            -69 -68 -49 -102 -123 -78 62 88 -10 vhcurveto
            -274 hlineto
            -213 8 184 -145 284 hhcurveto
            275 188 145 211 143 -79 82 -199 66 hvcurveto
            -107 36 rlineto
            -117 38 -37 28 56 vvcurveto
            65 64 45 104 103 74 -58 -82 7 vhcurveto
            260 hlineto
            205 -5 -179 142 -256 hhcurveto
            -268 -177 -139 -204 hvcurveto
            return
          </CharString>
          <CharString index="8" raw="1">
            1c04ad2a 1d0b  
          </CharString>
          <CharString index="9">
            285 hlineto
            135 637 rlineto
            132 29 103 91 128 hhcurveto
            114 73 -69 -97 -25 -3 -27 -7 -31 hvcurveto
            -131 -611 54 callgsubr
            141 658 rlineto
            9 46 5 44 39 vvcurveto
            174 -132 134 -202 -157 -121 -75 -110 -70 vhcurveto
            -6 hlineto
            115 533 71 callgsubr
            return
          </CharString>
          <CharString index="10">
            rmoveto
            142 121 67 110 72 hvcurveto
            6 hlineto
            93 callgsubr
            281 -57 callsubr
            -285 hlineto
            -122 -561 rlineto
            -6 hlineto
            124 -35 -125 86 -163 hhcurveto
            -305 -231 -289 -388 -264 145 -168 232 hvcurveto
            118 235 rmoveto
            -125 -78 93 145 227 128 169 165 52 callgsubr
            -138 -223 -132 -178 -169 hvcurveto
            return
          </CharString>
          <CharString index="11">
            15 callsubr
            135 30 101 88 122 hhcurveto
            110 74 -64 -99 -24 -3 -28 -7 -34 hvcurveto
            -129 -611 54 callgsubr
            139 658 rlineto
            9 47 5 46 38 vvcurveto
            183 -138 127 -193 -149 -128 -70 -119 -73 vhcurveto
            -6 hlineto
            35 165 rlineto
            -275 hlineto
            return
          </CharString>
          <CharString index="12">
            rmoveto
            49 52 5 7 33 hvcurveto
            45 215 rlineto
            -4 -17 -18 -1 -37 hhcurveto
            -86 -45 27 67 18 3 26 5 22 hvcurveto
            101 463 rlineto
            219 hlineto
            46 224 rlineto
            -220 hlineto
            56 261 -10 callgsubr
            -54 -261 90 callgsubr
            -47 -224 rlineto
            160 hlineto
            -109 -506 rlineto
            -9 -42 -2 -38 -27 vvcurveto
            -155 126 -77 195 vhcurveto
            return
          </CharString>
          <CharString index="13">
            242 1503 766 rmoveto
            -608 hlineto
            -47 -226 rlineto
            317 hlineto
            -6 -25 rlineto
            -166 -37 -144 -115 -181 hhcurveto
            -218 -119 150 228 305 156 292 309 177 116 -102 -149 10 hvcurveto
            294 hlineto
            1 7 0 10 7 vvcurveto
            267 -4 -234 218 -354 hhcurveto
            -497 -282 -413 -454 -373 239 -251 381 366 256 216 390 73 hvcurveto
            return
          </CharString>
          <CharString index="14" raw="1">
            d8bc16f7 c506f704 f89f05f7 9a068506
            f737fc9f f30afb49 f8c005f7 7cd1f718
            f758f769 1af783fb 37f73dfb b41efcd5
            06f792fb 8815f792 06f71ada 45fb0efb
            28fb0b23 fb451ffb a0060b 
          </CharString>
          <CharString index="15" raw="1">
            06fbc71c fa5d0b  
          </CharString>
          <CharString index="16">
            rmoveto
            122 97 95 124 hvcurveto
            123 1 -98 89 -118 hhcurveto
            -121 -99 -96 -124 -122 99 -89 117 hvcurveto
            121 vmoveto
            -52 -41 38 53 57 42 40 55 52 40 -38 -53 1 hvcurveto
            -57 -42 -40 -55 vhcurveto
            endchar
          </CharString>
          <CharString index="17">
            5 callsubr
            640 hlineto
            458 311 362 513 358 -234 210 -359 hvcurveto
            -257 -256 rmoveto
            191 hlineto
            226 122 -129 -222 -349 -207 -230 -289 hvcurveto
            -244 hlineto
            return
          </CharString>
          <CharString index="18">
            297 1250 830 rmoveto
            -328 -198 -266 -265 -199 -129 148 230 327 198 266 265 199 129 -147 -230 vhcurveto
            308 16 rmoveto
            120 -29 111 -55 90 vhcurveto
            4 7 rlineto
            -4 6 22 -6 17 hhcurveto
            92 83 60 126 26 hvcurveto
            55 258 62 callgsubr
            -37 -178 rlineto
            -68 -14 -30 -27 -65 -112 -68 132 -294 hhcurveto
            -43 callgsubr
            hvcurveto
            return
          </CharString>
          <CharString index="19">
            rmoveto
            224 hlineto
            336 319 rlineto
            -227 hlineto
            -197 -192 rlineto
            -7 hlineto
            -116 192 rlineto
            -215 hlineto
            endchar
          </CharString>
          <CharString index="20">
            rmoveto
            73 55 10 10 30 hvcurveto
            46 218 rlineto
            -3 -7 -18 -2 -14 hhcurveto
            -33 -20 15 29 -2 hvcurveto
            12 2 17 4 17 vhcurveto
            241 1128 69 callsubr
            -258 -1210 -5 -26 -3 -24 1 -23 rlinecurve
            -99 3 71 -69 121 hhcurveto
            return
          </CharString>
          <CharString index="21">
            2 1176 615 rmoveto
            93 -20 82 -36 63 vhcurveto
            6 28 vlineto
            99 88 76 117 24 hvcurveto
            48 227 62 callgsubr
            -31 -149 rlineto
            -61 -13 -32 -24 -66 -93 -91 54 -156 hhcurveto
            -338 -258 -279 -362 -291 190 -191 295 338 256 278 361 hvcurveto
            -786 -154 rmoveto
            225 129 181 167 122 75 -97 -155 -225 -129 -180 -166 -123 -75 95 156 vhcurveto
            return
          </CharString>
          <CharString index="22">
            rmoveto
            46 callsubr
            -68 -107 hhcurveto
            -92 -53 51 81 14 3 14 3 12 hvcurveto
            -179 hlineto
            -5 -21 -3 -22 -24 vvcurveto
            -147 114 -109 187 229 151 136 94 callsubr
            return
          </CharString>
          <CharString index="23">
            rmoveto
            -200 -37 118 -139 212 hhcurveto
            237 156 139 200 37 hvcurveto
            -192 hlineto
            -104 -24 -79 -79 -107 hhcurveto
            -104 -47 79 104 20 hvcurveto
            endchar
          </CharString>
          <CharString index="24">
            hmoveto
            321 224 192 267 147 -102 114 -156 30 hvcurveto
            1 7 rlineto
            190 42 137 143 189 vvcurveto
            182 -154 130 -259 vhcurveto
            -590 -95 callgsubr
            561 1227 rmoveto
            228 hlineto
            141 75 -56 -99 -125 -115 -90 -171 113 callgsubr
            -134 -625 rmoveto
            89 411 rlineto
            260 hlineto
            157 80 -64 -112 -138 -117 -97 -178 hvcurveto
            return
          </CharString>
          <CharString index="25">
            hmoveto
            285 hlineto
            139 655 rlineto
            124 26 92 81 100 hhcurveto
            94 56 -63 -86 -25 -3 -27 -7 -30 hvcurveto
            -132 -629 47 callgsubr
            138 655 rlineto
            128 28 91 77 100 hhcurveto
            94 56 -63 -86 -25 -3 -27 -7 -30 hvcurveto
            -132 -629 54 callgsubr
            142 673 rlineto
            9 45 5 43 39 vvcurveto
            175 -127 124 -173 -164 -120 -84 -108 -74 vhcurveto
            -5 hlineto
            109 -31 -103 83 -142 hhcurveto
            -136 -122 -81 -114 -61 hvcurveto
            -6 hlineto
            37 171 rlineto
            -275 hlineto
            return
          </CharString>
          <CharString index="26">
            rmoveto
            -5 -21 -3 -21 -21 vvcurveto
            -154 128 -106 172 224 155 125 198 45 vhcurveto
            -183 hlineto
            -107 -25 -86 -65 -104 hhcurveto
            -90 -55 49 83 14 3 14 3 12 hvcurveto
            return
          </CharString>
          <CharString index="27">
            -459 22 83 callsubr
            124 582 rlineto
            166 37 92 86 153 hhcurveto
            58 53 -15 -17 37 hvcurveto
            56 262 rlineto
            16 -33 -46 11 -57 hhcurveto
            -125 -97 -67 -99 -57 hvcurveto
            -6 hlineto
            30 150 rlineto
            -276 hlineto
            return
          </CharString>
          <CharString index="28">
            rmoveto
            168 hlineto
            161 97 -70 -117 -123 -118 -90 -159 -166 -111 88 128 4 hvcurveto
            -281 hlineto
            -267 -35 231 -197 350 hhcurveto
            337 244 188 260 152 -93 112 -158 38 hvcurveto
            1 7 rlineto
            197 26 140 148 181 vvcurveto
            223 -205 157 -290 -297 -228 -172 -249 -34 vhcurveto
            278 hlineto
            103 19 107 73 130 hhcurveto
            138 91 -69 -104 -117 -111 -75 -171 hvcurveto
            -189 hlineto
            return
          </CharString>
          <CharString index="29" raw="1">
            f9eafa5c f9f115fc 4006f711 f8daa91d
            f716f8ef 05f84006 f83dfd07 15f847f7
            e3e40afb 81f796fc 17fc48fb dbfc03fc
            8bfc00f7 7efb95f8 131ff862 f9ea15fb
            dcfb57fb 9efb99fb 57fb11f7 28f77af7
            dbf756f7 9ef799f7 57f712fb 27fb7a1e
            0b   
          </CharString>
          <CharString index="30">
            1075 rmoveto
            -292 hlineto
            -331 -789 rlineto
            -6 hlineto
            -22 789 80 callsubr
            -352 -789 rlineto
            -5 hlineto
            -3 789 rlineto
            -277 hlineto
            57 -1075 rlineto
            312 hlineto
            346 756 rlineto
            6 hlineto
            32 -756 rlineto
            307 hlineto
            return
          </CharString>
          <CharString index="31">
            rmoveto
            -196 -35 132 -114 223 hhcurveto
            223 143 119 191 41 hvcurveto
            -193 hlineto
            -98 -22 -80 -57 -102 hhcurveto
            -98 -58 57 98 19 hvcurveto
            endchar
          </CharString>
          <CharString index="32">
            420 1062 -24 rmoveto
            344 245 270 372 288 -189 193 -291 -277 -210 -178 -258 -75 hvcurveto
            -152 hlineto
            88 413 -10 callgsubr
            -228 -1076 rlineto
            286 hlineto
            94 439 rlineto
            172 -8 hlineto
            -276 13 185 -179 281 hhcurveto
            9 231 rmoveto
            -124 -76 101 148 239 130 174 160 123 76 -102 -148 -237 -131 -175 -158 hvcurveto
            return
          </CharString>
          <CharString index="33">
            96 277 -13 rmoveto
            277 152 148 260 166 hvcurveto
            674 1048 rlineto
            -329 hlineto
            -468 -786 rlineto
            -18 hlineto
            -140 786 rlineto
            -317 hlineto
            243 -1095 rlineto
            -72 -62 -73 -29 -86 hhcurveto
            -52 -26 7 2 -6 hvcurveto
            -52 -255 rlineto
            -2 5 46 -12 66 hhcurveto
            return
          </CharString>
          <CharString index="34">
            rmoveto
            84 66 68 83 83 -66 68 -84 -84 -67 -68 -83 24 callsubr
          </CharString>
          <CharString index="35">
            224 rmoveto
            -127 -83 95 138 213 124 188 176 126 78 -92 -149 -224 -129 -169 -165 hvcurveto
            -395 -575 rmoveto
            118 553 rlineto
            6 hlineto
            -134 42 122 -85 159 hhcurveto
            304 228 288 389 265 -143 167 -232 -136 -125 -65 -112 -74 hvcurveto
            -6 hlineto
            35 160 80 callsubr
            -303 -1426 rlineto
            return
          </CharString>
          <CharString index="36">
            rmoveto
            85 hlineto
            42 29 -23 -32 -39 -34 -27 -49 -52 -34 28 40 2 hvcurveto
            1 -213 vlineto
            -2 -10 -1 -6 -13 vvcurveto
            -139 115 -86 186 177 124 91 131 76 -47 58 -71 16 vhcurveto
            5 vlineto
            92 12 73 70 87 vvcurveto
            119 -113 83 -161 -161 -117 -83 -139 -29 vhcurveto
            208 hlineto
            30 8 34 20 39 hhcurveto
            45 31 -22 -34 -40 -34 -23 -58 hvcurveto
            -82 hlineto
            return
          </CharString>
          <CharString index="37">
            hmoveto
            215 1005 rlineto
            7 hlineto
            171 -1000 rlineto
            199 hlineto
            600 1000 rlineto
            10 hlineto
            -217 -1005 rlineto
            272 -57 callsubr
            -377 hlineto
            -620 -1045 rlineto
            -6 hlineto
            -181 1045 rlineto
            -346 61 callsubr
            return
          </CharString>
          <CharString index="38">
            rmoveto
            8 28 40 6 32 hhcurveto
            58 37 -24 -40 -48 -49 -43 -73 -22 hvcurveto
            62 -112 rlineto
            146 50 95 106 110 vvcurveto
            100 -84 66 -132 -43 -55 -9 -13 -32 vhcurveto
            endchar
          </CharString>
          <CharString index="39">
            899 hlineto
            48 232 rlineto
            -516 hlineto
            1 6 643 646 41 191 rlineto
            -878 hlineto
            -48 -232 rlineto
            517 hlineto
            -1 -6 -670 -666 rlineto
            return
          </CharString>
          <CharString index="40">
            rmoveto
            51 callsubr
            217 162 190 262 187 -112 112 -189 -218 -159 -187 -263 vhcurveto
            300 -121 rmoveto
            -40 -23 36 64 149 67 142 71 42 24 -35 -65 -146 -70 -145 -71 hvcurveto
            return
          </CharString>
          <CharString index="41" raw="1">
            15601df7 fffb83f7 96fc1c1f 86fb9815
            f75df716 da1dfb5b fb9efb9f fb5dfb15
            f728f77a f7dbf75a f79ef79f 1f0b
          </CharString>
          <CharString index="42">
            -79 callgsubr
            endchar
          </CharString>
          <CharString index="43">
            rmoveto
            106 -59 81 -102 32 vhcurveto
            3 10 119 23 88 102 1 116 rlinecurve
            167 1 -169 121 -244 hhcurveto
            -273 -183 -139 -235 -43 hvcurveto
            269 hlineto
            90 20 76 58 107 hhcurveto
            93 61 -47 -63 -1 hvcurveto
            -69 -72 -50 -101 vhcurveto
            -137 hlineto
            -40 -190 rlineto
            144 hlineto
            101 55 -37 -67 hvcurveto
            -78 -1 -82 -61 -111 hhcurveto
            -113 -77 66 93 -4 108 callgsubr
            -232 1 179 -157 271 hhcurveto
            287 203 151 209 2 hvcurveto
            return
          </CharString>
          <CharString index="44">
            rmoveto
            -243 187 -169 276 279 178 156 283 59 vhcurveto
            220 1029 rlineto
            -304 hlineto
            -210 -984 rlineto
            -140 -31 -68 -69 -112 hhcurveto
            -112 -68 67 107 hvcurveto
            12 -293 vlineto
            -1 -14 0 -21 -14 vvcurveto
            return
          </CharString>
          <CharString index="45">
            76 350 119 102 222 -452 112 callgsubr
            -304 615 505 460 rlineto
            -338 hlineto
            -445 -411 rlineto
            -6 hlineto
            167 779 rlineto
            -285 43 callgsubr
            return
          </CharString>
          <CharString index="46">
            104 800 738 rmoveto
            -150 -100 71 138 143 129 103 185 hvcurveto
            247 hlineto
            -99 -455 rlineto
            -225 -231 rmoveto
            0 173 vlineto
            -109 -507 rlineto
            304 -57 callsubr
            -609 hlineto
            -372 -240 -221 -287 -174 88 -136 144 -63 hvcurveto
            -499 -562 rlineto
            362 hlineto
            return
          </CharString>
          <CharString index="47">
            1102 hlineto
            53 258 rlineto
            -720 6 hlineto
            911 976 42 203 rlineto
            -1064 64 callgsubr
            684 -6 hlineto
            -912 -975 rlineto
            return
          </CharString>
          <CharString index="48">
            rmoveto
            5 21 3 21 21 vvcurveto
            154 -128 106 -172 -224 -156 -125 -198 -44 vhcurveto
            183 hlineto
            107 25 86 65 104 hhcurveto
            90 55 -49 -83 -14 -3 -14 -3 -12 hvcurveto
            endchar
          </CharString>
          <CharString index="49" raw="1">
            fb32f8e1 f8bd1531 52bedaef e0d1f70f
            1ff73a06 4afbc005 fb09fcbd 15ae1dfc
            8606fbbc fb5efb38 fb82fb0e cb26f658
            1ffc05fc 2305f7e8 06f7ccf7 ef058a8b
            8b8b1ff2 060b  
          </CharString>
          <CharString index="50">
            hlineto
            -70 callgsubr
            return
          </CharString>
          <CharString index="51">
            439 338 366 504 return
          </CharString>
          <CharString index="52">
            298 -57 callsubr
            -293 hlineto
            -858 -961 rlineto
            -18 hlineto
            208 961 rlineto
            -298 -95 callgsubr
            293 hlineto
            858 959 rlineto
            18 hlineto
            return
          </CharString>
          <CharString index="53">
            rmoveto
            11 31 33 5 36 hhcurveto
            52 32 -24 -40 -44 -46 -47 -69 -26 hvcurveto
            68 -112 rlineto
            131 45 93 111 117 vvcurveto
            102 -80 68 -122 -42 -51 -10 -13 -36 vhcurveto
            -57 -376 -67 callgsubr
            endchar
          </CharString>
          <CharString index="54">
            1443 rlineto
            return
          </CharString>
          <CharString index="55">
            rmoveto
            2 5 95 339 1 3 rrcurveto
            279 hlineto
            -182 -851 rlineto
            281 -42 callsubr
            -807 hlineto
            -2 -146 -537 -3 -10 vhcurveto
            -194 -53 -65 -89 -86 hhcurveto
            -22 -21 2 5 -18 hvcurveto
            -51 -250 rlineto
            -7 22 40 -6 34 hhcurveto
            246 124 137 380 102 hvcurveto
            endchar
          </CharString>
          <CharString index="56">
            rmoveto
            125 105 107 166 33 hvcurveto
            -159 hlineto
            -75 -17 -36 -43 -43 -74 -36 134 -137 hhcurveto
            -128 -103 -103 -166 -33 hvcurveto
            160 hlineto
            71 14 38 43 43 73 37 -134 138 hhcurveto
            return
          </CharString>
          <CharString index="57">
            rmoveto
            44 callgsubr
            -74 -56 -57 -70 -71 56 -56 74 hvcurveto
            395 hmoveto
            44 callgsubr
            -73 -57 -57 -70 -71 57 -56 73 hvcurveto
            222 547 -77 callgsubr
          </CharString>
          <CharString index="58">
            rmoveto
            133 -354 rlineto
            304 hlineto
            -222 530 452 545 rlineto
            -320 hlineto
            -269 -354 rlineto
            -6 hlineto
            -134 354 rlineto
            -304 hlineto
            222 -530 -452 -545 rlineto
            321 78 callsubr
            return
          </CharString>
          <CharString index="59">
            -70 callgsubr
            -998 hlineto
            -224 -849 rlineto
            -194 -52 -73 -136 -137 hhcurveto
            -26 -26 5 3 -14 hvcurveto
            -56 -272 rlineto
            -6 18 39 -7 49 hhcurveto
            322 134 217 369 97 hvcurveto
            167 612 rlineto
            422 hlineto
            -253 -1185 rlineto
            endchar
          </CharString>
          <CharString index="60">
            614 rmoveto
            14 hlineto
            -132 -614 rlineto
            297 hlineto
            132 614 rlineto
            14 hlineto
            373 -614 rlineto
            318 hlineto
            -421 706 730 737 rlineto
            -335 hlineto
            -624 -621 rlineto
            -13 hlineto
            133 621 rlineto
            -297 hlineto
            -133 -620 rlineto
            -12 hlineto
            -358 620 rlineto
            -316 hlineto
            395 -686 -770 -757 rlineto
            368 hlineto
            return
          </CharString>
          <CharString index="61" raw="1">
            16f7eb06 f84ef862 05960628 fc6205f7
            ad06eef8 62059706 f792fc62 05f7bf06
            fbd4f8f1 8c38f8ac f8bd05fb d106fc36
            fc460580 06e8f846 05fbad06 2efc4605
            8106fb84 f84605fb bc06f7bc fca905de
            070b   
          </CharString>
          <CharString index="62">
            rmoveto
            125 105 102 160 30 hvcurveto
            -159 hlineto
            -70 -15 -35 -37 -43 -77 -37 123 -135 hhcurveto
            -128 -102 -97 -162 -31 hvcurveto
            160 hlineto
            66 12 37 38 43 76 38 -123 136 hhcurveto
            -284 -59 rmoveto
            -328 -280 rlineto
            239 hlineto
            189 163 rlineto
            7 hlineto
            118 -163 46 callgsubr
            -209 280 rlineto
            endchar
          </CharString>
          <CharString index="63">
            1202 rmoveto
            -130 -604 rlineto
            -378 hlineto
            379 604 rlineto
            -129 -1202 rmoveto
            929 hlineto
            52 258 rlineto
            -648 hlineto
            77 347 rlineto
            611 hlineto
            50 239 rlineto
            -612 hlineto
            75 341 rlineto
            648 hlineto
            54 258 rlineto
            -1259 hlineto
            -903 -1443 112 callgsubr
            232 364 rlineto
            463 hlineto
            return
          </CharString>
          <CharString index="64">
            rmoveto
            241 338 68 callsubr
            -201 -338 rlineto
            endchar
          </CharString>
          <CharString index="65">
            hlineto
            -34 callgsubr
            return
          </CharString>
          <CharString index="66">
            rmoveto
            -75 -57 -58 -73 -71 57 -59 75 74 57 59 71 73 -57 58 -74 hvcurveto
            630 272 rmoveto
            -691 hlineto
            -32 -151 rlineto
            691 hlineto
            -199 -121 rmoveto
            -75 -56 -58 -73 -71 56 -59 75 75 56 59 71 73 -56 58 -75 hvcurveto
            endchar
          </CharString>
          <CharString index="67" raw="1">
            15f718f8 ff05fbc4 2c1df7c4 06f719f8
            fa059606 f840fcfa 05f7ee06 fca7f99d
            9328f9bf f99105fb ff06fd26 fcff050b
          </CharString>
          <CharString index="68">
            rmoveto
            -155 311 68 callsubr
            189 60 callsubr
          </CharString>
          <CharString index="69">
            hmoveto
            287 -34 callsubr
            return
          </CharString>
          <CharString index="70">
            rmoveto
            71 55 56 69 69 -55 56 -71 -72 -56 -56 -69 -69 56 -56 72 hvcurveto
            386 hmoveto
            72 55 56 69 69 -55 56 -72 -72 -55 -56 -69 -69 55 -56 72 hvcurveto
            endchar
          </CharString>
          <CharString index="71" raw="1">
            1c04a215 f8f306ac f73205fc f306fb4b
            1cfac015 941d  
          </CharString>
          <CharString index="72">
            rmoveto
            -532 -392 -387 -521 -458 331 -315 483 58 63 6 10 50 hvcurveto
            34 165 rlineto
            -9 -24 -74 -8 -65 hhcurveto
            -407 -1 -267 244 371 vvcurveto
            418 317 322 412 355 236 -208 -312 -234 -109 -195 -132 -50 -30 29 49 10 1 14 4 19 vhcurveto
            114 528 rlineto
            -206 hlineto
            -26 -125 -18 1 rlineto
            96 -22 -96 64 -117 hhcurveto
            -224 -174 -210 -272 -211 120 -141 179 104 86 47 95 54 hvcurveto
            18 3 rlineto
            -5 -1 -6 -7 vvcurveto
            -88 6 97 -59 133 hhcurveto
            274 197 254 351 400 -310 276 -450 hvcurveto
            76 -795 rmoveto
            -158 -93 -124 -117 -90 -57 68 109 157 92 123 117 91 57 -68 -107 vhcurveto
            endchar
          </CharString>
          <CharString index="73">
            -42 callsubr
            -287 hlineto
            return
          </CharString>
          <CharString index="74">
            rmoveto
            -188 111 -113 187 217 163 190 262 187 -113 111 -189 -217 -159 -186 -263 vhcurveto
            300 -121 rmoveto
            -40 -23 36 64 149 67 141 71 42 23 -34 -65 -147 -69 -144 -71 hvcurveto
            -99 -897 rmoveto
            -5 callgsubr
            884 279 -67 callsubr
            endchar
          </CharString>
          <CharString index="75">
            rmoveto
            32 callsubr
          </CharString>
          <CharString index="76" raw="1">
            15e7f843 05fbb28c 1dedf85f 059206f7
            a3fc5f05 f7d606fb fff8f994 32f8cef8
            bb05fbe1 06fc4bfc 43050b 
          </CharString>
          <CharString index="77">
            rmoveto
            207 hlineto
            210 214 rlineto
            -239 hlineto
            -138 -715 rmoveto
            126 90 90 126 1 hvcurveto
            124 -91 83 -122 -124 -92 -90 -125 -124 92 -84 120 vhcurveto
            -87 209 rmoveto
            56 38 37 53 52 36 -36 -52 vhcurveto
            -56 1 -38 -37 -55 hhcurveto
            -50 -37 36 52 hvcurveto
            endchar
          </CharString>
          <CharString index="78" raw="1">
            5a1d0e   
          </CharString>
          <CharString index="79">
            hlineto
            51 246 rlineto
            -844 hlineto
            return
          </CharString>
          <CharString index="80">
            rmoveto
            158 -106 -140 83 -158 hhcurveto
            -278 -206 -198 -269 -231 168 -167 239 172 143 80 162 122 hvcurveto
            -158 107 140 -83 157 hhcurveto
            278 207 198 270 230 -169 167 -238 -173 -143 -79 -163 -122 hvcurveto
            -415 -3 rmoveto
            93 94 -68 -120 75 hvcurveto
            -127 -91 -97 -61 -104 hhcurveto
            -105 -82 76 91 120 94 89 123 hvcurveto
            786 -375 rmoveto
            -92 -95 67 120 -74 hvcurveto
            127 91 97 61 104 hhcurveto
            104 83 -76 -91 -120 -95 -88 -123 hvcurveto
            endchar
          </CharString>
          <CharString index="81">
            rmoveto
            218 hlineto
            296 287 rlineto
            -247 hlineto
            return
          </CharString>
          <CharString index="82">
            512 rmoveto
            254 4 -181 180 -256 hhcurveto
            -154 -128 -65 -114 -86 hvcurveto
            -7 1 rlineto
            269 47 154 181 183 hhcurveto
            122 85 -67 -109 19 hvcurveto
            294 hlineto
            250 -10 -207 176 -285 hhcurveto
            -411 -291 -384 -490 -8 hvcurveto
            -449 -10 263 -170 287 hhcurveto
            327 243 229 308 6 hvcurveto
            -537 211 rmoveto
            143 104 -100 -139 -4 hvcurveto
            -153 -3 -114 -109 -159 hhcurveto
            -147 -108 104 138 3 hvcurveto
            145 3 125 114 157 hhcurveto
            endchar
          </CharString>
          <CharString index="83">
            -38 callsubr
            201 -1 callsubr
            return
          </CharString>
          <CharString index="84" raw="1">
            f7030afc 5a0658fb 8205f751 060b
          </CharString>
          <CharString index="85">
            717 rmoveto
            -144 -100 97 139 3 hvcurveto
            153 3 115 111 156 hhcurveto
            148 102 -108 -140 -3 hvcurveto
            -145 -3 -121 -107 -156 hhcurveto
            -535 215 rmoveto
            -252 -4 189 -186 256 hhcurveto
            153 122 59 119 87 hvcurveto
            6 hlineto
            -265 -40 -157 -182 -190 hhcurveto
            -124 -91 64 101 -15 hvcurveto
            -294 hlineto
            -240 13 218 -175 286 hhcurveto
            404 279 379 501 9 hvcurveto
            442 8 -264 171 -274 hhcurveto
            -330 -241 -225 -311 -6 hvcurveto
            endchar
          </CharString>
          <CharString index="86">
            hlineto
            -228 -1075 rlineto
            return
          </CharString>
          <CharString index="87">
            rmoveto
            33 147 rlineto
            7 33 6 40 40 vvcurveto
            164 -114 108 -215 vhcurveto
            -97 hlineto
            -45 -217 rlineto
            44 hlineto
            101 38 -39 -78 -26 -5 -30 -7 -34 hvcurveto
            -38 -175 rlineto
            -6 -29 -5 -28 -26 vvcurveto
            -94 50 -70 154 -21 vhcurveto
            -4 -18 -168 -15 -100 -71 -33 -152 rlinecurve
            -45 -206 rlineto
            -150 -33 -55 -56 -128 hhcurveto
            -44 hlineto
            -45 -219 rlineto
            98 hlineto
            272 143 95 272 58 hvcurveto
            37 164 rlineto
            158 34 71 50 150 hhcurveto
            57 277 rlineto
            -128 -50 36 83 26 5 29 7 32 hvcurveto
            endchar
          </CharString>
          <CharString index="88">
            624 rmoveto
            167 hlineto
            148 87 -70 -118 -126 -107 -87 -156 -166 -109 95 133 7 hvcurveto
            0 -281 vlineto
            -3 -17 -1 -15 -13 vvcurveto
            -259 -4 216 -172 332 hhcurveto
            329 240 189 259 154 -91 111 -155 37 hvcurveto
            1 7 rlineto
            195 26 140 148 181 vvcurveto
            223 -202 157 -286 -293 -215 -159 -251 -42 vhcurveto
            277 hlineto
            100 23 98 65 127 hhcurveto
            134 88 -69 -104 -119 -108 -75 -169 hvcurveto
            -175 hlineto
            endchar
          </CharString>
          <CharString index="89">
            rmoveto
            -132 252 62 callgsubr
            162 -252 rlineto
            return
          </CharString>
          <CharString index="90">
            rmoveto
            228 hlineto
            268 252 rlineto
            -258 hlineto
            return
          </CharString>
          <CharString index="91">
            715 rmoveto
            -145 -110 109 143 2 hvcurveto
            148 2 122 118 152 hhcurveto
            146 110 -109 -142 -2 hvcurveto
            -148 -2 -124 -119 -151 hhcurveto
            -551 213 rmoveto
            -239 175 -182 230 83 65 21 42 53 vhcurveto
            12 -2 -17 -26 -27 -33 -26 -29 rlinecurve
            -62 -74 -388 -350 -76 -56 rrcurveto
            403 hlineto
            50 46 285 271 35 40 rrcurveto
            226 230 106 206 204 vvcurveto
            284 -219 199 -313 -341 -254 -236 -316 vhcurveto
            endchar
          </CharString>
          <CharString index="92">
            233 hlineto
            150 704 rlineto
            -234 hlineto
            -198 -113 -41 -200 193 110 rlineto
            4 hlineto
            return
          </CharString>
          <CharString index="93">
            -213 624 882 rmoveto
            87 57 -43 -58 -57 -52 -37 -115 -24 hvcurveto
            -182 -37 rlineto
            -236 -48 -118 -110 -169 vvcurveto
            -195 162 -128 257 268 181 129 229 64 vhcurveto
            -281 hlineto
            -87 -36 -80 -51 -109 hhcurveto
            -89 -60 43 60 64 50 36 131 29 hvcurveto
            189 40 rlineto
            219 47 117 114 165 vvcurveto
            181 -163 124 -246 -268 -177 -126 -222 -50 vhcurveto
            281 hlineto
            80 23 75 51 101 hhcurveto
            endchar
          </CharString>
          <CharString index="94">
            rmoveto
            170 132 155 234 22 hvcurveto
            -210 hlineto
            -96 -13 -44 -47 -61 -113 -49 173 -196 hhcurveto
            -174 -130 -152 -227 -18 hvcurveto
            211 hlineto
            90 14 44 46 61 112 53 -176 189 hhcurveto
            -122 -489 rmoveto
            170 132 156 233 22 hvcurveto
            -210 hlineto
            -96 -13 -44 -47 -61 -113 -49 173 -196 hhcurveto
            -174 -130 -151 -228 -18 hvcurveto
            211 hlineto
            90 14 44 46 61 112 53 -176 189 hhcurveto
            endchar
          </CharString>
          <CharString index="95">
            rmoveto
            213 hlineto
            292 311 rlineto
            -250 hlineto
            -630 -311 rmoveto
            213 hlineto
            293 311 rlineto
            -250 hlineto
            endchar
          </CharString>
          <CharString index="96">
            rmoveto
            38 callgsubr
            399 hmoveto
            38 callgsubr
            return
          </CharString>
          <CharString index="97">
            -107 507 -19 rmoveto
            322 238 154 231 55 hvcurveto
            -293 hlineto
            -102 -41 -103 -58 -137 hhcurveto
            -121 -68 40 71 73 63 47 128 hvcurveto
            173 hlineto
            42 210 rlineto
            -150 hlineto
            -116 -51 33 66 79 79 44 124 164 46 -57 -92 11 hvcurveto
            281 hlineto
            225 -9 -140 150 -340 hhcurveto
            -302 -203 -130 -212 -86 51 -70 90 -38 hvcurveto
            -2 -12 rlineto
            -143 -38 -97 -102 -135 vvcurveto
            -195 167 -96 282 vhcurveto
            return
          </CharString>
          <CharString index="98">
            213 1416 478 rmoveto
            -297 hlineto
            -146 -55 -125 -103 -168 hhcurveto
            -202 -122 143 238 17 hvcurveto
            556 hlineto
            49 241 rlineto
            -572 hlineto
            217 59 166 144 198 hhcurveto
            168 119 -100 -162 9 hvcurveto
            298 hlineto
            4 0 12 8 vvcurveto
            298 -4 -251 208 -319 hhcurveto
            -432 -295 -319 -459 -42 hvcurveto
            -466 -57 234 -273 391 hhcurveto
            337 259 200 315 81 hvcurveto
            return
          </CharString>
          <CharString index="99">
            -25 rmoveto
            338 242 235 319 254 -179 180 -244 -127 -104 -43 -73 -70 hvcurveto
            -7 hlineto
            114 347 rlineto
            661 hlineto
            53 249 rlineto
            -905 hlineto
            -243 -806 rlineto
            283 hlineto
            66 53 95 43 85 hhcurveto
            147 102 -96 -146 -161 -118 -119 -161 -151 -109 89 130 -11 hvcurveto
            0 -278 vlineto
            -2 -34 1 22 -14 vvcurveto
            -257 1 224 -185 310 hhcurveto
            endchar
          </CharString>
          <CharString index="100">
            rmoveto
            83 65 66 83 82 -65 66 -83 -84 -64 -66 -82 -83 64 -66 84 hvcurveto
            417 559 -77 callgsubr
          </CharString>
          <CharString index="101">
            hmoveto
            32 callsubr
          </CharString>
          <CharString index="102">
            2153 rmoveto
            -4 -20 -2 -18 -19 vvcurveto
            -135 113 -86 190 216 162 111 167 35 vhcurveto
            -209 hlineto
            -71 -18 -66 -44 -87 hhcurveto
            -77 -45 35 59 6 0 8 2 7 103 callsubr
            209 hlineto
            71 18 66 44 86 hhcurveto
            77 46 -35 -58 -7 0 -7 -2 -8 hvcurveto
            210 hlineto
            4 41 callgsubr
            -110 -168 -35 vhcurveto
            return
          </CharString>
          <CharString index="103">
            -138 1075 369 rmoveto
            -266 hlineto
            -96 -32 -84 -62 -105 hhcurveto
            -130 -77 89 144 -1 hvcurveto
            4 0 4 1 4 vhcurveto
            381 hlineto
            39 192 rlineto
            -392 hlineto
            129 34 98 88 125 hhcurveto
            115 72 -67 -92 11 hvcurveto
            267 hlineto
            235 -12 -157 158 -285 hhcurveto
            -341 -236 -273 -371 -293 165 -186 308 258 190 152 241 54 hvcurveto
            return
          </CharString>
          <CharString index="104" raw="1">
            52f8e1f7 5b15fb14 38f4f730 f783f716
            f745f746 f714dd23 fb31fb80 fb16fb48
            fb451ff4 fa1815fb edfb90fb a5fc04fb
            b5f755fb 55f7b8f7 edf790f7 a6f804f7
            b4fb55f7 55fbb81f fd0dfe99 15f702fb
            04faa8fa abfb02f7 04050b 
          </CharString>
          <CharString index="105">
            rmoveto
            -5 -21 -3 -23 -24 vvcurveto
            -145 113 -109 187 228 153 134 188 44 vhcurveto
            46 callsubr
            -67 -107 hhcurveto
            -92 -53 50 80 14 2 14 3 13 hvcurveto
            endchar
          </CharString>
          <CharString index="106">
            115 6 callsubr
            return
          </CharString>
          <CharString index="107">
            90 71 73 93 92 -71 73 -90 -89 -72 -73 -92 -93 72 -73 89 hvcurveto
            return
          </CharString>
          <CharString index="108">
            138 876 -103 callsubr
            -71 1478 -59 callgsubr
            return
          </CharString>
          <CharString index="109">
            543 rlineto
            -481 hlineto
            -55 -258 rlineto
            210 hlineto
            return
          </CharString>
          <CharString index="110">
            rmoveto
            40 195 rlineto
            -562 hlineto
            -40 -195 rlineto
            622 289 rmoveto
            40 195 rlineto
            -561 hlineto
            -40 -195 rlineto
            endchar
          </CharString>
          <CharString index="111">
            1121 rmoveto
            230 hlineto
            223 322 109 callgsubr
            return
          </CharString>
          <CharString index="112">
            rmoveto
            -306 -36 callgsubr
            return
          </CharString>
          <CharString index="113">
            rmoveto
            87 68 67 87 87 -68 68 -87 -88 -68 -68 -87 -87 68 -67 88 hvcurveto
            return
          </CharString>
          <CharString index="114">
            -104 callgsubr
            endchar
          </CharString>
          <CharString index="115">
            50 callgsubr
            396 hmoveto
            73 56 57 70 79 callsubr
            -74 -56 -57 -70 -70 56 -57 74 hvcurveto
            endchar
          </CharString>
          <CharString index="116">
            hmoveto
            288 hlineto
            55 252 rlineto
            188 hlineto
            52 251 rlineto
            -189 hlineto
            201 940 rlineto
            -443 hlineto
            -329 -374 -255 -295 -180 -243 -50 -279 rcurveline
            717 hlineto
            -395 248 rmoveto
            183 238 242 281 175 194 rrcurveto
            6 hlineto
            -155 -719 rlineto
            -452 hlineto
            endchar
          </CharString>
          <CharString index="117" raw="1">
            15f7edf7 90f7a6f8 04f7b4fb 55f755fb
            b8fbedfb 900b  
          </CharString>
          <CharString index="118">
            170 1221 hmoveto
            -49 callgsubr
            return
          </CharString>
          <CharString index="119">
            -326 rmoveto
            -4 11 57 -4 31 hhcurveto
            241 132 97 213 49 hvcurveto
            6 24 -275 55 -5 -21 rlineto
            -107 -24 -47 -43 -94 hhcurveto
            -11 -21 1 1 -6 hvcurveto
            return
          </CharString>
          <CharString index="120">
            rmoveto
            26 -75 14 -89 -82 vvcurveto
            -224 -104 -238 -142 -131 vhcurveto
            232 hlineto
            158 149 90 210 219 vvcurveto
            101 -21 90 -40 70 vhcurveto
            endchar
          </CharString>
          <CharString index="121">
            rmoveto
            218 hlineto
            313 272 rlineto
            -233 hlineto
            -168 -149 rlineto
            -14 hlineto
            -106 149 rlineto
            -208 hlineto
            63 -344 rmoveto
            -75 -57 -58 -73 -71 57 -59 75 74 57 59 71 73 110 callsubr
            -73 -71 56 -59 75 75 56 59 71 73 -56 58 -75 hvcurveto
            endchar
          </CharString>
          <CharString index="122">
            hmoveto
            285 hlineto
            135 637 rlineto
            return
          </CharString>
          <CharString index="123">
            rmoveto
            79 60 62 75 74 -60 62 -79 -79 -59 -62 -74 -75 59 -62 79 hvcurveto
            428 523 105 callsubr
            endchar
          </CharString>
          <CharString index="124">
            -703 353 hmoveto
            -90 callgsubr
            317 1586 -105 callgsubr
          </CharString>
          <CharString index="125">
            -178 165 1076 rmoveto
            135 -1076 112 callsubr
            593 1076 rlineto
            -307 hlineto
            -394 -801 rlineto
            -6 hlineto
            -62 801 rlineto
            return
          </CharString>
          <CharString index="126">
            253 hlineto
            379 528 37 176 rlineto
            -561 hlineto
            -37 -176 rlineto
            316 -4 hlineto
            endchar
          </CharString>
          <CharString index="127">
            -70 callsubr
            endchar
          </CharString>
          <CharString index="128">
            rmoveto
            212 172 175 214 213 -172 175 -212 -211 -172 -175 -213 -214 172 -175 211 hvcurveto
            191 vmoveto
            -110 -90 90 108 107 90 90 110 111 90 -90 -107 -108 -90 -90 -111 hvcurveto
            endchar
          </CharString>
          <CharString index="129" raw="1">
            15b9f774 05fd747a 1d0e 
          </CharString>
          <CharString index="130">
            rmoveto
            46 225 rlineto
            -1080 hlineto
            -46 -225 rlineto
            645 343 rmoveto
            98 69 66 96 97 -69 65 -98 -98 -69 -65 -97 -96 69 -66 98 hvcurveto
            -165 -784 rmoveto
            99 68 66 96 96 -68 66 -99 -99 -68 -66 -96 -96 68 -66 99 hvcurveto
            endchar
          </CharString>
          <CharString index="131">
            -83 67 -68 84 hvcurveto
            endchar
          </CharString>
          <CharString index="132">
            -90 callsubr
            endchar
          </CharString>
          <CharString index="133">
            17 callgsubr
            231 287 rmoveto
            75 56 59 72 72 -56 58 -75 -75 -56 -58 -72 -72 56 -59 75 hvcurveto
            399 hmoveto
            75 57 59 72 72 -57 58 -75 -74 -57 -58 -72 -72 57 -59 74 hvcurveto
            endchar
          </CharString>
          <CharString index="134">
            88 callgsubr
            -982 -17 callgsubr
            409 hlineto
            endchar
          </CharString>
          <CharString index="135">
            1443 rmoveto
            -107 -504 rlineto
            196 hlineto
            157 504 rlineto
            return
          </CharString>
          <CharString index="136">
            hmoveto
            -56 callgsubr
            endchar
          </CharString>
          <CharString index="137">
            -222 -568 rlineto
            241 hlineto
            256 568 rlineto
            return
          </CharString>
          <CharString index="138">
            -355 955 851 rmoveto
            46 224 rlineto
            -736 -17 callgsubr
            return
          </CharString>
          <CharString index="139">
            -93 callgsubr
            endchar
          </CharString>
          <CharString index="140" raw="1">
            15fb9c06 fd371cfb 9105f79c 06f926f7
            6715c0f7 9705feb1 0656fb97 051c0481
            f87215c0 f79605fe b10657fb 96050e
          </CharString>
          <CharString index="141">
            254 568 rlineto
            -278 hlineto
            -195 -568 rlineto
            endchar
          </CharString>
          <CharString index="142">
            hlineto
            -125 -584 rlineto
            return
          </CharString>
          <CharString index="143">
            rmoveto
            52 -146 34 -208 1 -262 2 -471 -186 -395 -277 -272 rrcurveto
            308 hlineto
            275 270 174 398 423 vvcurveto
            239 -46 272 -75 152 vhcurveto
            endchar
          </CharString>
          <CharString index="144">
            69 callsubr
            -182 -851 rlineto
            -409 hlineto
            182 851 rlineto
            -286 -21 callsubr
            return
          </CharString>
          <CharString index="145" raw="1">
            901d0e   
          </CharString>
          <CharString index="146">
            rmoveto
            53 236 rlineto
            -1046 hlineto
            -53 -236 rlineto
            132 578 rmoveto
            -55 -242 1115 299 51 225 -975 301 -56 -250 621 -156 -5 -21 rlineto
            endchar
          </CharString>
          <CharString index="147">
            -285 rmoveto
            275 hlineto
            235 479 13 64 rlineto
            -504 hlineto
            -53 -258 rlineto
            174 hlineto
            return
          </CharString>
          <CharString index="148">
            rmoveto
            415 hlineto
            54 265 rlineto
            -414 hlineto
            90 426 68 callsubr
            -90 -426 rlineto
            -405 hlineto
            -54 -265 rlineto
            404 hlineto
            -88 -416 rlineto
            261 hlineto
            endchar
          </CharString>
          <CharString index="149">
            rmoveto
            -85 callgsubr
            endchar
          </CharString>
          <CharString index="150">
            rmoveto
            -68 callsubr
            return
          </CharString>
          <CharString index="151">
            hmoveto
            -70 callgsubr
            -1239 -95 callgsubr
            304 hlineto
            253 1184 rlineto
            633 hlineto
            -253 -1184 rlineto
            endchar
          </CharString>
          <CharString index="152" raw="1">
            d60afc0d 0656fb96 05f3060b 
          </CharString>
          <CharString index="153">
            -184 hlineto
            -104 -25 -83 return
          </CharString>
          <CharString index="154">
            435 1443 rmoveto
            57 callgsubr
            return
          </CharString>
          <CharString index="155">
            rmoveto
            40 194 rlineto
            -559 hlineto
            -40 -194 rlineto
            endchar
          </CharString>
          <CharString index="156">
            hmoveto
            -61 callgsubr
            endchar
          </CharString>
          <CharString index="157">
            332 307 80 callsubr
            -291 -307 rlineto
            return
          </CharString>
          <CharString index="158">
            -188 112 -113 187 return
          </CharString>
          <CharString index="159">
            1822 -59 callgsubr
            return
          </CharString>
          <CharString index="160">
            rmoveto
            374 1754 rlineto
            -549 hlineto
            -46 -222 rlineto
            269 hlineto
            -282 -1309 rlineto
            -270 hlineto
            -46 -223 rlineto
            endchar
          </CharString>
          <CharString index="161">
            rmoveto
            53 261 rlineto
            -1052 hlineto
            85 callsubr
            1152 476 rmoveto
            54 262 rlineto
            -1053 hlineto
            -53 -262 rlineto
            endchar
          </CharString>
          <CharString index="162">
            691 151 rmoveto
            -262 399 1 10 428 421 rlineto
            -288 hlineto
            -406 -406 -3 -14 266 -410 rlineto
            return
          </CharString>
          <CharString index="163">
            25 rmoveto
            -260 hlineto
            -66 -310 rlineto
            260 hlineto
            return
          </CharString>
          <CharString index="164">
            hmoveto
            302 -57 callsubr
            -302 hlineto
            -428 -257 -61 -295 421 252 rlineto
            6 hlineto
            endchar
          </CharString>
          <CharString index="165">
            hmoveto
            331 hlineto
            858 1192 52 251 rlineto
            -1017 hlineto
            -52 -248 rlineto
            698 hlineto
            -1 -8 rlineto
            endchar
          </CharString>
          <CharString index="166">
            rmoveto
            -15 callsubr
            endchar
          </CharString>
          <CharString index="167">
            -311 rlineto
            endchar
          </CharString>
          <CharString index="168">
            hlineto
            -306 -36 callgsubr
            return
          </CharString>
          <CharString index="169">
            rmoveto
            91 callsubr
          </CharString>
          <CharString index="170">
            51 callgsubr
            -125 -584 rlineto
            return
          </CharString>
          <CharString index="171">
            1185 rlineto
            return
          </CharString>
          <CharString index="172">
            hlineto
            73 callgsubr
            -304 hlineto
            return
          </CharString>
          <CharString index="173">
            -1535 -101 callgsubr
          </CharString>
          <CharString index="174">
            -305 hlineto
            -184 -871 return
          </CharString>
          <CharString index="175">
            rlineto
            -261 hlineto
            return
          </CharString>
          <CharString index="176">
            rlineto
            -287 hlineto
            return
          </CharString>
          <CharString index="177">
            -693 358 77 callgsubr
          </CharString>
          <CharString index="178">
            -1215 -102 callgsubr
            return
          </CharString>
          <CharString index="179">
            -10 callgsubr
            -181 -851 rlineto
            -303 hlineto
            return
          </CharString>
          <CharString index="180" raw="1">
            f7021dfc 1b0659fb 8205f710 060b
          </CharString>
          <CharString index="181">
            rmoveto
            -90 -73 -71 -91 -90 73 -71 90 91 73 71 90 91 -73 71 -91 hvcurveto
            endchar
          </CharString>
          <CharString index="182" raw="1">
            fbb115f7 a6f11d0b  
          </CharString>
          <CharString index="183">
            rmoveto
            832 1754 rlineto
            -275 hlineto
            -833 -1754 rlineto
            endchar
          </CharString>
          <CharString index="184">
            rmoveto
            373 1754 rlineto
            -273 hlineto
            -373 -1754 rlineto
            endchar
          </CharString>
          <CharString index="185">
            hlineto
            269 354 rlineto
            return
          </CharString>
          <CharString index="186">
            70 -56 57 -73 return
          </CharString>
          <CharString index="187">
            rlineto
            -279 hlineto
            return
          </CharString>
          <CharString index="188">
            611 1600 17 callgsubr
            return
          </CharString>
          <CharString index="189">
            hlineto
            -49 -238 rlineto
            return
          </CharString>
          <CharString index="190">
            hmoveto
            286 hlineto
            return
          </CharString>
          <CharString index="191" raw="1">
            15f8031c 06be05fb 2006fc03 1cf94205
            0b   
          </CharString>
          <CharString index="192">
            -54 -261 rlineto
            return
          </CharString>
          <CharString index="193">
            rmoveto
            33 159 rlineto
            -6 -17 -27 -5 -29 hhcurveto
            -58 -42 28 45 return
          </CharString>
          <CharString index="194">
            rmoveto
            2048 hlineto
            53 260 rlineto
            -2048 hlineto
            endchar
          </CharString>
          <CharString index="195">
            hhcurveto
            -10 -24 1 2 -7 hvcurveto
            return
          </CharString>
          <CharString index="196" raw="1">
            f802f88c f7ff0b  
          </CharString>
          <CharString index="197">
            -102 vvcurveto
            -111 93 -71 131 61 53 9 15 30 vhcurveto
            return
          </CharString>
          <CharString index="198">
            -12 callgsubr
            endchar
          </CharString>
          <CharString index="199">
            rmoveto
            265 hlineto
            -52 1754 rlineto
            -265 hlineto
            endchar
          </CharString>
          <CharString index="200">
            rmoveto
            -7 callgsubr
            return
          </CharString>
          <CharString index="201">
            187 44 vhcurveto
            return
          </CharString>
          <CharString index="202">
            rmoveto
            1847 hlineto
            44 198 rlineto
            -1848 hlineto
            return
          </CharString>
          <CharString index="203">
            475 rlineto
            -227 hlineto
            -172 -746 rlineto
            endchar
          </CharString>
          <CharString index="204">
            -124 1203 1076 rmoveto
            -273 hlineto
            -6 return
          </CharString>
          <CharString index="205">
            -428 -421 rlineto
            288 hlineto
            406 406 return
          </CharString>
          <CharString index="206">
            rmoveto
            164 786 -685 -393 rlineto
            endchar
          </CharString>
          <CharString index="207">
            rmoveto
            687 393 -523 393 rlineto
            endchar
          </CharString>
          <CharString index="208">
            89 callgsubr
            endchar
          </CharString>
          <CharString index="209">
            -307 -36 callgsubr
            return
          </CharString>
          <CharString index="210">
            hvcurveto
            -333 -589 rmoveto
            return
          </CharString>
          <CharString index="211">
            rlineto
            316 hlineto
            return
          </CharString>
          <CharString index="212">
            rmoveto
            -691 hlineto
            -33 89 callgsubr
            return
          </CharString>
          <CharString index="213">
            114 543 rlineto
            return
          </CharString>
          <CharString index="214">
            113 543 rlineto
            return
          </CharString>
          <CharString index="215">
            rlineto
            -302 hlineto
            return
          </CharString>
          <CharString index="216">
            vhcurveto
            49 244 rlineto
            31 -66 -148 47 return
          </CharString>
          <CharString index="217">
            -57 58 -74 hvcurveto
            399 hmoveto
            -75 -56 -58 return
          </CharString>
          <CharString index="218">
            -261 rmoveto
            267 hlineto
            105 499 rlineto
            return
          </CharString>
          <CharString index="219">
            rlineto
            326 hlineto
            return
          </CharString>
        <CharString name=".notdef">
          793 -80 -494 95 callsubr
          52 251 rmoveto
          1848 hlineto
          43 198 rlineto
          -1847 hlineto
          52 251 rmoveto
          1847 hlineto
          43 199 rlineto
          -1847 hlineto
          51 251 rmoveto
          1848 hlineto
          44 198 rlineto
          -1847 hlineto
          51 251 rmoveto
          1847 hlineto
          44 198 rlineto
          -1847 hlineto
          51 251 95 callsubr
          endchar
        </CharString>
        <CharString name=".null">
          endchar
        </CharString>
        <CharString name="A">
          138 876 -103 callsubr
          endchar
        </CharString>
        <CharString name="AE">
          723 1134 -44 callsubr
          endchar
        </CharString>
        <CharString name="AEacute">
          723 1134 -44 callsubr
          606 1193 -84 callgsubr
        </CharString>
        <CharString name="AEmacron">
          723 1134 -44 callsubr
          874 1406 -80 callgsubr
        </CharString>
        <CharString name="Aacute">
          138 876 -103 callsubr
          120 1213 -84 callgsubr
        </CharString>
        <CharString name="Abreve">
          138 876 -103 callsubr
          -297 1516 -75 callgsubr
          endchar
        </CharString>
        <CharString name="Abreveacute">
          138 876 -103 callsubr
          -67 1538 -17 callsubr
          -175 -595 -45 callgsubr
        </CharString>
        <CharString name="Abrevedotbelow">
          138 876 -103 callsubr
          -297 1516 -75 callgsubr
          -288 -2320 -101 callgsubr
        </CharString>
        <CharString name="Abrevegrave">
          138 876 -103 callsubr
          177 1538 20 callgsubr
        </CharString>
        <CharString name="Abrevehookabove">
          138 876 -103 callsubr
          -119 1696 rmoveto
          7 23 32 5 34 hhcurveto
          57 34 -23 -38 -40 -40 -33 -59 -15 hvcurveto
          73 -98 rlineto
          115 33 81 87 98 vvcurveto
          95 -84 65 -125 -34 -44 -5 -10 -33 vhcurveto
          85 -629 -45 callgsubr
        </CharString>
        <CharString name="Abrevetilde">
          138 876 -103 callsubr
          216 1533 rmoveto
          125 105 102 160 30 hvcurveto
          -159 hlineto
          -70 -15 -35 -37 -43 -77 -37 123 -135 hhcurveto
          -128 -102 -97 -162 -31 hvcurveto
          160 hlineto
          66 12 37 38 43 76 38 -123 136 hhcurveto
          -220 -338 -45 callgsubr
        </CharString>
        <CharString name="Acaron">
          138 876 -103 callsubr
          -114 1203 -88 callsubr
        </CharString>
        <CharString name="Acircumflex">
          138 876 -103 callsubr
          169 1522 -72 callgsubr
        </CharString>
        <CharString name="Acircumflexacute">
          1 callsubr
          11 60 -17 callsubr
          endchar
        </CharString>
        <CharString name="Acircumflexdotbelow">
          138 876 -103 callsubr
          169 1522 -94 callgsubr
          215 hlineto
          -776 -2007 -101 callgsubr
        </CharString>
        <CharString name="Acircumflexgrave">
          1 callsubr
          255 60 -18 callsubr
          endchar
        </CharString>
        <CharString name="Acircumflexhookabove">
          1 callsubr
          17 166 rmoveto
          10 30 33 5 32 hhcurveto
          56 36 -25 -38 -47 -41 -38 -58 -18 hvcurveto
          70 -105 rlineto
          122 44 84 92 112 vvcurveto
          98 -81 62 -127 -43 -53 -8 -13 -30 vhcurveto
          endchar
        </CharString>
        <CharString name="Acircumflextilde">
          138 876 -103 callsubr
          212 1533 -45 callsubr
        </CharString>
        <CharString name="Acyrillic">
          148 881 -103 callsubr
          endchar
        </CharString>
        <CharString name="Adblgrave">
          138 876 -103 callsubr
          -307 1213 -42 callgsubr
          598 -307 rmoveto
          216 hlineto
          -161 307 rlineto
          -257 hlineto
          endchar
        </CharString>
        <CharString name="Adieresis">
          138 876 -103 callsubr
          -170 1242 -105 callgsubr
        </CharString>
        <CharString name="Adieresismacron">
          138 876 -103 callsubr
          -177 1461 -41 callsubr
        </CharString>
        <CharString name="Adotaccent">
          138 876 -103 callsubr
          38 1263 -101 callgsubr
        </CharString>
        <CharString name="Adotbelow">
          138 876 -103 callsubr
          -406 -804 -101 callgsubr
        </CharString>
        <CharString name="Adotmacron">
          138 876 -103 callsubr
          25 1210 16 callsubr
        </CharString>
        <CharString name="Agrave">
          138 876 -103 callsubr
          -117 1213 -42 callgsubr
          endchar
        </CharString>
        <CharString name="Ahookabove">
          138 876 -103 callsubr
          -153 1443 -69 callsubr
        </CharString>
        <CharString name="Ainvertedbreve">
          138 876 -103 callsubr
          350 1195 -60 callgsubr
        </CharString>
        <CharString name="Alphagreek">
          138 876 -103 callsubr
          endchar
        </CharString>
        <CharString name="Alphatonosgreek">
          138 876 -103 callsubr
          -808 777 rmoveto
          230 hlineto
          223 322 109 callgsubr
          endchar
        </CharString>
        <CharString name="Amacron">
          138 876 -103 callsubr
          388 1426 -80 callgsubr
        </CharString>
        <CharString name="Aogonek">
          138 1161 -281 rmoveto
          -6 -15 -29 -5 -29 hhcurveto
          -65 -36 28 46 76 96 82 191 69 hvcurveto
          24 9 -185 1425 rlineto
          -357 hlineto
          -814 -36 callgsubr
          323 hlineto
          186 344 rlineto
          509 hlineto
          37 -345 rlineto
          -141 -71 -96 -108 90 callsubr
          -253 1590 rmoveto
          6 hlineto
          61 -573 rlineto
          -375 hlineto
          endchar
        </CharString>
        <CharString name="Aring">
          138 876 -103 callsubr
          48 1222 -91 callsubr
        </CharString>
        <CharString name="Aringacute">
          138 876 -103 callsubr
          26 1169 14 callgsubr
        </CharString>
        <CharString name="Aringbelow">
          138 876 -103 callsubr
          -401 -868 -91 callsubr
        </CharString>
        <CharString name="Atilde">
          138 876 -103 callsubr
          157 1202 rmoveto
          -103 callgsubr
          endchar
        </CharString>
        <CharString name="B">
          89 744 -83 callsubr
          endchar
        </CharString>
        <CharString name="Bdotaccent">
          89 744 -83 callsubr
          193 1375 -101 callgsubr
        </CharString>
        <CharString name="Bdotbelow">
          89 744 -83 callsubr
          -194 -692 -101 callgsubr
        </CharString>
        <CharString name="Becyrillic">
          53 654 hmoveto
          370 242 223 293 243 -191 145 -302 hvcurveto
          -223 hlineto
          63 281 rlineto
          659 hlineto
          53 258 rlineto
          -964 -95 callgsubr
          355 245 rmoveto
          92 422 rlineto
          218 hlineto
          149 93 -61 -121 -137 -133 -103 -181 hvcurveto
          endchar
        </CharString>
        <CharString name="Betagreek">
          89 744 -83 callsubr
          endchar
        </CharString>
        <CharString name="Blinebelow">
          89 744 -83 callsubr
          169 -465 -80 callgsubr
        </CharString>
        <CharString name="C">
          216 1223 914 -96 callgsubr
          endchar
        </CharString>
        <CharString name="Cacute">
          216 1223 914 -96 callgsubr
          -136 644 -84 callgsubr
        </CharString>
        <CharString name="Ccaron">
          216 1223 914 -96 callgsubr
          -370 634 -88 callsubr
        </CharString>
        <CharString name="Ccedilla">
          216 592 -119 rmoveto
          -22 -101 rlineto
          58 hlineto
          96 37 -15 -36 -37 -42 -20 -76 -45 -46 7 11 -34 hvcurveto
          -29 -140 rlineto
          -12 34 64 -9 59 hhcurveto
          169 118 91 128 89 -59 53 -104 5 hvcurveto
          56 83 310 22 240 199 61 294 rlinecurve
          -297 hlineto
          -157 -55 -135 -96 -166 hhcurveto
          -199 -122 140 228 348 187 249 270 166 126 -104 -154 10 hvcurveto
          1 -20 0 -7 -6 vvcurveto
          296 hlineto
          2 13 1 14 -1 21 rrcurveto
          301 -9 -238 204 -331 hhcurveto
          -472 -319 -358 -518 -337 196 -229 313 -42 hvcurveto
          endchar
        </CharString>
        <CharString name="Ccedillaacute">
          216 1419 1865 rmoveto
          -283 hlineto
          -291 -307 rlineto
          242 hlineto
          -495 -1677 rmoveto
          -22 -101 rlineto
          58 hlineto
          96 37 -15 -36 -37 -42 -20 -76 -45 -46 7 11 -34 hvcurveto
          -29 -140 rlineto
          -12 34 64 -9 59 hhcurveto
          169 118 91 128 89 -59 53 -104 5 hvcurveto
          56 83 310 22 240 199 61 294 rlinecurve
          -297 hlineto
          -157 -55 -135 -96 -166 hhcurveto
          -199 -122 140 228 348 187 249 270 166 126 -104 -154 10 hvcurveto
          1 -20 0 -7 -6 vvcurveto
          296 hlineto
          2 13 1 14 -1 21 rrcurveto
          301 -9 -238 204 -331 hhcurveto
          -472 -319 -358 -518 -337 196 -229 313 -42 hvcurveto
          endchar
        </CharString>
        <CharString name="Ccircumflex">
          216 1223 914 -96 callgsubr
          -87 953 -72 callgsubr
        </CharString>
        <CharString name="Cdotaccent">
          216 1223 914 -96 callgsubr
          -218 694 -101 callgsubr
        </CharString>
        <CharString name="Checyrillic">
          11 callsubr
          endchar
        </CharString>
        <CharString name="Chigreek">
          135 -42 29 callsubr
        </CharString>
        <CharString name="D">
          198 356 1443 25 callsubr
        </CharString>
        <CharString name="Dcaron">
          198 356 1443 -90 callsubr
          318 1290 -88 callsubr
        </CharString>
        <CharString name="Dcircumflexbelow">
          198 356 1443 -90 callsubr
          245 -422 -94 callgsubr
          216 hlineto
          endchar
        </CharString>
        <CharString name="Dcommaaccent">
          198 356 1443 -90 callsubr
          16 -732 -43 callsubr
        </CharString>
        <CharString name="Dcroat">
          198 408 257 rmoveto
          75 345 rlineto
          259 hlineto
          53 257 rlineto
          -257 hlineto
          71 328 rlineto
          191 hlineto
          226 122 -129 -222 -349 -207 -230 -289 hvcurveto
          -296 1186 rmoveto
          -124 -584 rlineto
          -125 hlineto
          -53 -257 rlineto
          124 hlineto
          -128 -602 rlineto
          640 hlineto
          458 311 362 513 358 -234 210 -359 hvcurveto
          endchar
        </CharString>
        <CharString name="Ddotaccent">
          198 356 1443 -90 callsubr
          469 1350 -101 callgsubr
        </CharString>
        <CharString name="Ddotbelow">
          198 356 1443 -90 callsubr
          107 -717 -101 callgsubr
        </CharString>
        <CharString name="Decyrillic">
          273 578 612 rmoveto
          163 574 rlineto
          457 hlineto
          -201 -928 rlineto
          -586 hlineto
          4 18 75 72 44 108 44 156 rlinecurve
          -377 -612 rmoveto
          954 107 callgsubr
          273 hlineto
          63 callgsubr
          -1028 hlineto
          -224 -806 -53 -196 -54 -112 -115 -71 rlinecurve
          -101 hlineto
          -114 -543 rlineto
          274 hlineto
          endchar
        </CharString>
        <CharString name="Deltagreek">
          158 1272 hmoveto
          37 175 -184 1268 rlineto
          -357 hlineto
          -737 -1267 -37 -176 rlineto
          890 1167 rmoveto
          7 hlineto
          114 -904 -1 -5 rlineto
          -625 hlineto
          1 6 rlineto
          endchar
        </CharString>
        <CharString name="Djecyrillic">
          478 408 hmoveto
          304 hlineto
          103 482 rlineto
          89 65 126 69 123 hhcurveto
          142 86 -78 -131 -149 -117 -105 -162 -70 -46 8 4 -11 hvcurveto
          -51 -244 rlineto
          -4 12 67 -13 99 hhcurveto
          362 230 233 319 249 -163 177 -288 -132 -117 -48 -71 -76 hvcurveto
          -15 hlineto
          86 398 rlineto
          422 hlineto
          54 258 rlineto
          -1148 64 callgsubr
          422 hlineto
          endchar
        </CharString>
        <CharString name="Dlinebelow">
          198 356 1443 -90 callsubr
          470 -490 -80 callgsubr
        </CharString>
        <CharString name="Dzecyrillic">
          61 86 425 rmoveto
          -102 callsubr
          endchar
        </CharString>
        <CharString name="Dzhecyrillic">
          242 1293 hmoveto
          51 callgsubr
          -253 -1184 rlineto
          -633 hlineto
          253 1184 rlineto
          -302 -95 callgsubr
          518 107 callgsubr
          260 hlineto
          61 285 rlineto
          endchar
        </CharString>
        <CharString name="E">
          -84 1059 258 -101 callsubr
          endchar
        </CharString>
        <CharString name="Eacute">
          -84 1059 258 -101 callsubr
          -37 1557 -84 callgsubr
        </CharString>
        <CharString name="Ebreve">
          -84 1059 258 -101 callsubr
          -454 1860 -75 callgsubr
          endchar
        </CharString>
        <CharString name="Ecaron">
          -84 1059 258 -101 callsubr
          -271 1547 -88 callsubr
        </CharString>
        <CharString name="Ecedilla">
          -84 1259 1185 rmoveto
          54 258 rlineto
          -957 hlineto
          -307 -1443 rlineto
          412 hlineto
          -80 -119 -22 -101 rlineto
          58 hlineto
          96 37 -15 -36 -37 -42 -20 -76 -45 -46 7 11 -34 hvcurveto
          -29 -140 rlineto
          -12 34 64 -9 59 hhcurveto
          169 118 91 128 89 -59 53 -104 5 hvcurveto
          71 105 rlineto
          376 hlineto
          53 258 rlineto
          -653 hlineto
          78 351 rlineto
          615 hlineto
          49 239 rlineto
          -615 hlineto
          74 337 rlineto
          endchar
        </CharString>
        <CharString name="Ecedillabreve">
          -84 1085 1860 rmoveto
          -104 -25 -82 -66 -107 hhcurveto
          -93 -53 49 81 14 3 14 3 12 hvcurveto
          -179 hlineto
          -5 -21 -3 -23 -23 vvcurveto
          -145 113 -109 187 228 153 134 187 44 vhcurveto
          -10 -675 rmoveto
          54 258 rlineto
          -957 hlineto
          -307 -1443 rlineto
          412 hlineto
          -80 -119 -22 -101 rlineto
          58 hlineto
          96 37 -15 -36 -37 -42 -20 -76 -45 -46 7 11 -34 hvcurveto
          -29 -140 rlineto
          -12 34 64 -9 59 hhcurveto
          169 118 91 128 89 -59 53 -104 5 hvcurveto
          71 105 rlineto
          376 hlineto
          53 258 rlineto
          -653 hlineto
          78 351 rlineto
          615 hlineto
          49 239 rlineto
          -615 hlineto
          74 337 rlineto
          endchar
        </CharString>
        <CharString name="Ecircumflex">
          -84 1059 258 -101 callsubr
          12 1866 -72 callgsubr
        </CharString>
        <CharString name="Ecircumflexacute">
          -84 1059 258 -101 callsubr
          -228 52 callsubr
          11 60 -17 callsubr
          endchar
        </CharString>
        <CharString name="Ecircumflexbelow">
          -84 1059 258 -101 callsubr
          -386 -165 -94 callgsubr
          216 hlineto
          endchar
        </CharString>
        <CharString name="Ecircumflexdotbelow">
          -84 1059 258 -101 callsubr
          12 1866 -94 callgsubr
          215 hlineto
          -737 -2007 -101 callgsubr
        </CharString>
        <CharString name="Ecircumflexgrave">
          -84 1059 258 -101 callsubr
          -228 52 callsubr
          255 60 -18 callsubr
          endchar
        </CharString>
        <CharString name="Ecircumflexhookabove">
          -84 1059 258 -101 callsubr
          -228 52 callsubr
          17 166 rmoveto
          10 30 33 5 32 hhcurveto
          56 36 -25 -38 -47 -41 -38 -58 -18 hvcurveto
          70 -105 rlineto
          122 44 84 92 112 vvcurveto
          98 -81 62 -127 -43 -53 -8 -13 -30 vhcurveto
          endchar
        </CharString>
        <CharString name="Ecircumflextilde">
          -84 1059 258 -101 callsubr
          55 1877 -45 callsubr
        </CharString>
        <CharString name="Ecyrillic">
          -9 callsubr
          endchar
        </CharString>
        <CharString name="Edblgrave">
          -84 1059 258 -101 callsubr
          -464 1557 -42 callgsubr
          598 -307 rmoveto
          216 hlineto
          -161 307 rlineto
          -257 hlineto
          endchar
        </CharString>
        <CharString name="Edieresis">
          -84 1059 258 -101 callsubr
          -327 1586 -105 callgsubr
        </CharString>
        <CharString name="Edotaccent">
          -84 1059 258 -101 callsubr
          -120 1607 -101 callgsubr
        </CharString>
        <CharString name="Edotbelow">
          -84 1059 258 -101 callsubr
          -524 -460 -101 callgsubr
        </CharString>
        <CharString name="Efcyrillic">
          534 962 -31 rmoveto
          32 154 rlineto
          482 16 324 276 394 vvcurveto
          304 -211 198 -339 13 vhcurveto
          31 150 rlineto
          -299 hlineto
          -32 -150 rlineto
          -481 -16 -323 -275 -397 vvcurveto
          -302 210 -197 339 -14 vhcurveto
          -32 -154 rlineto
          -208 678 rmoveto
          238 188 176 258 13 vhcurveto
          -152 -700 rlineto
          -186 9 -108 102 162 vvcurveto
          1035 147 rmoveto
          -231 -186 -176 -260 -13 vhcurveto
          152 699 rlineto
          186 -9 108 -102 -168 vvcurveto
          endchar
        </CharString>
        <CharString name="Egrave">
          -84 1059 258 -101 callsubr
          -274 1557 -42 callgsubr
          endchar
        </CharString>
        <CharString name="Ehookabove">
          -84 1059 258 -101 callsubr
          -310 1787 -69 callsubr
        </CharString>
        <CharString name="Einvertedbreve">
          -84 1059 258 -101 callsubr
          193 1539 -60 callgsubr
        </CharString>
        <CharString name="Elcyrillic">
          185 1236 hmoveto
          -48 callsubr
        </CharString>
        <CharString name="Emacron">
          -84 1059 258 -101 callsubr
          231 1770 -80 callgsubr
        </CharString>
        <CharString name="Emacronacute">
          -84 1059 258 -101 callsubr
          195 1600 17 callgsubr
          289 282 -17 callsubr
          endchar
        </CharString>
        <CharString name="Emacrongrave">
          -84 1059 258 -101 callsubr
          195 1600 17 callgsubr
          512 282 -18 callsubr
          endchar
        </CharString>
        <CharString name="Emcyrillic">
          533 327 20 callsubr
        </CharString>
        <CharString name="Encyrillic">
          259 1310 -6 callsubr
        </CharString>
        <CharString name="Eogonek">
          -84 49 hmoveto
          692 hlineto
          -1 -4 rlineto
          -137 -67 -88 -110 -101 vvcurveto
          -109 90 -73 134 60 54 9 15 30 vhcurveto
          33 159 rlineto
          -7 -16 -30 -4 -27 hhcurveto
          -64 -37 27 47 71 88 82 143 59 hvcurveto
          35 12 51 252 rlineto
          -653 hlineto
          78 351 rlineto
          615 hlineto
          49 239 rlineto
          -615 hlineto
          74 337 rlineto
          652 hlineto
          54 258 rlineto
          -957 hlineto
          endchar
        </CharString>
        <CharString name="Epsilongreek">
          -84 1059 258 -101 callsubr
          endchar
        </CharString>
        <CharString name="Epsilontonosgreek">
          294 164 4 callsubr
          1126 -1185 -101 callsubr
          endchar
        </CharString>
        <CharString name="Ercyrillic">
          46 361 1443 -66 callgsubr
          endchar
        </CharString>
        <CharString name="Ereversedcyrillic">
          -83 callgsubr
          endchar
        </CharString>
        <CharString name="Escyrillic">
          226 1228 914 -96 callgsubr
          endchar
        </CharString>
        <CharString name="Etagreek">
          249 1305 -6 callsubr
        </CharString>
        <CharString name="Etatonosgreek">
          627 164 4 callsubr
          1372 -1443 -32 callsubr
        </CharString>
        <CharString name="Eth">
          198 408 257 rmoveto
          75 345 rlineto
          259 hlineto
          53 257 rlineto
          -257 hlineto
          71 328 rlineto
          191 hlineto
          226 122 -129 -222 -349 -207 -230 -289 hvcurveto
          -296 1186 rmoveto
          -124 -584 rlineto
          -125 hlineto
          -53 -257 rlineto
          124 hlineto
          -128 -602 rlineto
          640 hlineto
          458 311 362 513 358 -234 210 -359 hvcurveto
          endchar
        </CharString>
        <CharString name="Etilde">
          -84 1059 258 -101 callsubr
          1546 vmoveto
          -103 callgsubr
          endchar
        </CharString>
        <CharString name="Etildebelow">
          -84 1059 258 -101 callsubr
          -391 -455 rmoveto
          -103 callgsubr
          endchar
        </CharString>
        <CharString name="Euro">
          71 1461 1416 rmoveto
          22 -49 -130 32 -142 hhcurveto
          -391 -282 -207 -319 -110 hvcurveto
          -150 hlineto
          -34 -160 rlineto
          146 hlineto
          -7 -46 -4 -47 -1 -49 rrcurveto
          -165 hlineto
          -35 -161 rlineto
          215 hlineto
          -310 67 286 -192 397 hhcurveto
          30 50 4 4 17 hvcurveto
          54 260 rlineto
          -6 -18 -46 -3 -25 hhcurveto
          -257 -167 87 156 -63 hvcurveto
          456 hlineto
          34 161 rlineto
          -518 hlineto
          50 5 47 9 45 vhcurveto
          536 hlineto
          35 160 rlineto
          -516 hlineto
          161 84 159 99 216 hhcurveto
          113 103 -26 -20 44 hvcurveto
          endchar
        </CharString>
        <CharString name="F">
          -128 362 15 callgsubr
          endchar
        </CharString>
        <CharString name="Fdotaccent">
          -128 362 15 callgsubr
          845 1607 -101 callgsubr
        </CharString>
        <CharString name="G">
          -94 callsubr
          endchar
        </CharString>
        <CharString name="Gacute">
          -94 callsubr
          -392 975 -84 callgsubr
        </CharString>
        <CharString name="Gammagreek">
          -148 363 hmoveto
          253 64 callsubr
          612 hlineto
          54 258 rlineto
          -926 -95 callgsubr
          endchar
        </CharString>
        <CharString name="Gbreve">
          -94 callsubr
          -809 1278 -75 callgsubr
          endchar
        </CharString>
        <CharString name="Gcaron">
          -94 callsubr
          -626 965 -88 callsubr
        </CharString>
        <CharString name="Gcircumflex">
          -94 callsubr
          -343 1284 -72 callgsubr
        </CharString>
        <CharString name="Gcommaaccent">
          -94 callsubr
          -840 -1057 -43 callsubr
        </CharString>
        <CharString name="Gdotaccent">
          -94 callsubr
          -474 1025 -101 callgsubr
        </CharString>
        <CharString name="Gecyrillic">
          61 callgsubr
          endchar
        </CharString>
        <CharString name="Geupturncyrillic">
          -127 612 1185 rmoveto
          632 102 callgsubr
          -283 hlineto
          -60 -285 rlineto
          -653 -95 callgsubr
          305 hlineto
          endchar
        </CharString>
        <CharString name="Gjecyrillic">
          61 callgsubr
          902 1557 -84 callgsubr
        </CharString>
        <CharString name="Gmacron">
          -94 callsubr
          -124 1188 -80 callgsubr
        </CharString>
        <CharString name="H">
          249 1305 -6 callsubr
        </CharString>
        <CharString name="Hardsigncyrillic">
          276 889 hmoveto
          359 251 213 329 273 -190 160 -302 hvcurveto
          -207 hlineto
          101 468 rlineto
          -639 hlineto
          -53 -257 rlineto
          335 hlineto
          -254 -1186 rlineto
          654 727 rmoveto
          152 98 -71 -138 -162 -131 -111 -181 113 callgsubr
          105 482 rlineto
          endchar
        </CharString>
        <CharString name="Hbar">
          249 1178 859 rmoveto
          -638 hlineto
          40 188 rlineto
          638 hlineto
          461 221 rmoveto
          -104 hlineto
          37 175 rlineto
          -309 hlineto
          -37 -175 rlineto
          -638 hlineto
          37 175 rlineto
          -309 hlineto
          -37 -175 rlineto
          -109 hlineto
          -45 -221 rlineto
          107 hlineto
          -223 -1047 rlineto
          309 hlineto
          130 605 rlineto
          638 hlineto
          -130 -605 rlineto
          309 hlineto
          223 1047 rlineto
          105 hlineto
          endchar
        </CharString>
        <CharString name="Hbrevebelow">
          249 1305 hmoveto
          -93 callgsubr
          -695 -148 -2 callsubr
        </CharString>
        <CharString name="Hcaron">
          249 1305 hmoveto
          -93 callgsubr
          -102 1547 -88 callsubr
        </CharString>
        <CharString name="Hcedilla">
          249 1303 1443 rmoveto
          -125 -584 rlineto
          -638 hlineto
          125 584 rlineto
          -309 hlineto
          -307 -1443 rlineto
          141 hlineto
          -80 -119 -22 -101 rlineto
          58 hlineto
          96 37 -15 -36 -37 -42 -20 -76 -45 -46 7 11 -34 hvcurveto
          -29 -140 rlineto
          -12 34 64 -9 59 hhcurveto
          169 118 91 128 89 -59 53 -104 5 hvcurveto
          71 105 1 8 128 597 rlineto
          638 hlineto
          -130 -605 rlineto
          309 hlineto
          307 1443 rlineto
          endchar
        </CharString>
        <CharString name="Hcircumflex">
          249 1305 hmoveto
          -93 callgsubr
          181 1866 -72 callgsubr
        </CharString>
        <CharString name="Hdieresis">
          249 1305 hmoveto
          -93 callgsubr
          -158 1586 -105 callgsubr
        </CharString>
        <CharString name="Hdotaccent">
          249 1305 hmoveto
          -93 callgsubr
          49 1607 -101 callgsubr
        </CharString>
        <CharString name="Hdotbelow">
          249 1305 hmoveto
          -93 callgsubr
          -372 -460 -101 callgsubr
        </CharString>
        <CharString name="I">
          -703 353 77 callgsubr
        </CharString>
        <CharString name="I.1">
          -261 1100 1197 rmoveto
          51 246 rlineto
          -270 hlineto
          -304 hlineto
          -270 hlineto
          -51 -246 rlineto
          269 hlineto
          -203 -951 rlineto
          -271 hlineto
          -51 -246 rlineto
          270 hlineto
          304 hlineto
          270 hlineto
          51 246 rlineto
          -269 hlineto
          203 951 rlineto
          endchar
        </CharString>
        <CharString name="IAcyrillic">
          -61 callsubr
          endchar
        </CharString>
        <CharString name="IJ">
          440 353 hmoveto
          -90 callgsubr
          555 387 -63 callsubr
          endchar
        </CharString>
        <CharString name="IJacute">
          440 353 hmoveto
          -90 callgsubr
          607 1557 103 callgsubr
          -283 hlineto
          -291 -307 rlineto
          1385 hmoveto
          332 307 rlineto
          -283 hlineto
          -291 -307 rlineto
          -953 -1170 -63 callsubr
          endchar
        </CharString>
        <CharString name="IUcyrillic">
          854 1346 236 rmoveto
          -195 -125 148 230 327 194 266 261 195 126 -147 -230 -328 -195 -266 -261 hvcurveto
          -806 625 rmoveto
          125 582 rlineto
          -304 hlineto
          -307 -1443 rlineto
          303 hlineto
          130 603 rlineto
          236 hlineto
          -2 0 -2 -2 vvcurveto
          -364 234 -257 383 435 335 366 504 363 -237 258 -387 -355 -283 -244 -362 -93 vhcurveto
          endchar
        </CharString>
        <CharString name="Iacute">
          -703 353 hmoveto
          -90 callgsubr
          607 1557 -84 callgsubr
        </CharString>
        <CharString name="Iacute.1">
          -261 1208 1864 rmoveto
          -283 hlineto
          -291 -307 rlineto
          242 hlineto
          -299 -114 rmoveto
          -270 hlineto
          -51 -246 rlineto
          269 hlineto
          -203 -951 rlineto
          -271 hlineto
          -51 -246 rlineto
          270 hlineto
          304 hlineto
          270 hlineto
          51 246 rlineto
          -269 hlineto
          203 951 rlineto
          271 hlineto
          51 246 rlineto
          -270 hlineto
          endchar
        </CharString>
        <CharString name="Ibreve">
          -703 353 hmoveto
          -90 callgsubr
          190 1860 -75 callgsubr
          endchar
        </CharString>
        <CharString name="Ibreve.1">
          -261 992 1860 rmoveto
          -104 -25 -82 -66 -107 hhcurveto
          -93 -53 49 81 14 3 14 3 12 hvcurveto
          -179 hlineto
          -5 -21 -3 -23 -23 vvcurveto
          -145 113 -109 187 228 153 134 187 44 vhcurveto
          -599 -417 rmoveto
          -270 hlineto
          -51 -246 rlineto
          269 hlineto
          -203 -951 rlineto
          -271 hlineto
          -51 -246 rlineto
          270 hlineto
          304 hlineto
          270 hlineto
          51 246 rlineto
          -269 hlineto
          203 951 rlineto
          271 hlineto
          51 246 rlineto
          -270 hlineto
          endchar
        </CharString>
        <CharString name="Icaron">
          -703 353 hmoveto
          -90 callgsubr
          373 1547 -88 callsubr
        </CharString>
        <CharString name="Icaron.1">
          -261 866 1547 rmoveto
          336 319 rlineto
          -227 hlineto
          -197 -192 rlineto
          -7 hlineto
          -116 192 rlineto
          -215 hlineto
          202 -319 rlineto
          -65 -104 rmoveto
          -270 hlineto
          -51 -246 rlineto
          269 hlineto
          -203 -951 rlineto
          -271 hlineto
          -51 -246 rlineto
          270 hlineto
          304 hlineto
          270 hlineto
          51 246 rlineto
          -269 hlineto
          203 951 rlineto
          271 hlineto
          51 246 rlineto
          -270 hlineto
          endchar
        </CharString>
        <CharString name="Icircumflex">
          -703 353 hmoveto
          -90 callgsubr
          656 1866 -72 callgsubr
        </CharString>
        <CharString name="Icircumflex.1">
          -261 789 1739 rmoveto
          7 hlineto
          115 -192 rlineto
          215 hlineto
          -201 319 rlineto
          -224 hlineto
          -337 -319 rlineto
          227 hlineto
          509 -350 rmoveto
          51 246 rlineto
          -270 hlineto
          -304 hlineto
          -270 hlineto
          -51 -246 rlineto
          269 hlineto
          -203 -951 rlineto
          -271 hlineto
          -51 -246 rlineto
          270 hlineto
          304 hlineto
          270 hlineto
          51 246 rlineto
          -269 hlineto
          203 951 rlineto
          endchar
        </CharString>
        <CharString name="Icyrillic">
          70 callsubr
        </CharString>
        <CharString name="Icyrillic.1">
          -241 1110 1197 rmoveto
          51 246 rlineto
          -270 hlineto
          -304 hlineto
          -270 hlineto
          -51 -246 rlineto
          269 hlineto
          -203 -951 rlineto
          -271 hlineto
          -51 -246 rlineto
          270 hlineto
          304 hlineto
          270 hlineto
          51 246 rlineto
          -269 hlineto
          203 951 rlineto
          endchar
        </CharString>
        <CharString name="Idblgrave">
          -703 353 hmoveto
          -90 callgsubr
          180 1557 -42 callgsubr
          598 -307 rmoveto
          216 hlineto
          -161 307 rlineto
          -257 hlineto
          endchar
        </CharString>
        <CharString name="Idblgrave.1">
          -261 1060 1557 rmoveto
          -161 307 rlineto
          -257 hlineto
          202 -307 rlineto
          -179 0 rmoveto
          -161 307 rlineto
          -258 hlineto
          203 -307 rlineto
          651 -360 rmoveto
          51 246 rlineto
          -270 hlineto
          -304 hlineto
          -270 hlineto
          -51 -246 rlineto
          269 hlineto
          -203 -951 rlineto
          -271 hlineto
          -51 -246 rlineto
          270 hlineto
          304 hlineto
          270 hlineto
          51 246 rlineto
          -269 hlineto
          203 951 rlineto
          endchar
        </CharString>
        <CharString name="Idieresis">
          17 callsubr
        </CharString>
        <CharString name="Idieresis.1">
          -261 981 1586 rmoveto
          73 57 57 70 70 -57 57 -73 -73 -56 -57 -70 -70 56 -57 73 hvcurveto
          -395 0 rmoveto
          73 57 57 70 70 -57 57 -73 -73 -56 -57 -70 -70 56 -57 73 hvcurveto
          514 -389 rmoveto
          51 246 rlineto
          -270 hlineto
          -304 hlineto
          -270 hlineto
          -51 -246 rlineto
          269 hlineto
          -203 -951 rlineto
          -271 hlineto
          -51 -246 rlineto
          270 hlineto
          304 hlineto
          270 hlineto
          51 246 rlineto
          -269 hlineto
          203 951 rlineto
          endchar
        </CharString>
        <CharString name="Idieresisacute">
          -703 353 hmoveto
          -90 callgsubr
          423 1882 -17 callsubr
          -343 -577 -37 callsubr
        </CharString>
        <CharString name="Idieresisacute.1">
          -261 1188 2134 rmoveto
          -258 hlineto
          -238 -252 rlineto
          228 hlineto
          -74 -200 rmoveto
          -69 55 -56 72 72 55 56 69 69 -55 56 -72 -72 -55 -56 -69 vhcurveto
          -259 -125 rmoveto
          71 55 56 69 69 -55 56 -71 -72 -56 -56 -69 -69 56 -56 72 hvcurveto
          -10 -114 rmoveto
          -270 hlineto
          -51 -246 rlineto
          269 hlineto
          -203 -951 rlineto
          -271 hlineto
          -51 -246 rlineto
          270 hlineto
          304 hlineto
          270 hlineto
          51 246 rlineto
          -269 hlineto
          203 951 rlineto
          271 hlineto
          51 246 rlineto
          -270 hlineto
          endchar
        </CharString>
        <CharString name="Idotaccent">
          -703 353 hmoveto
          -90 callgsubr
          525 1607 -101 callgsubr
        </CharString>
        <CharString name="Idotaccent.1">
          -261 793 1607 rmoveto
          84 66 68 83 82 -66 69 -84 -84 -67 -69 -82 -83 67 -68 84 hvcurveto
          307 -410 rmoveto
          51 246 rlineto
          -270 hlineto
          -304 hlineto
          -270 hlineto
          -51 -246 rlineto
          269 hlineto
          -203 -951 rlineto
          -271 hlineto
          -51 -246 rlineto
          270 hlineto
          304 hlineto
          270 hlineto
          51 246 rlineto
          -269 hlineto
          203 951 rlineto
          endchar
        </CharString>
        <CharString name="Idotbelow">
          -703 353 hmoveto
          -90 callgsubr
          85 -460 -101 callgsubr
        </CharString>
        <CharString name="Idotbelow.1">
          -261 355 -158 rmoveto
          -84 -67 -69 -82 -83 67 -68 84 84 66 68 83 82 -66 69 -84 hvcurveto
          745 1355 rmoveto
          51 246 rlineto
          -270 hlineto
          -304 hlineto
          -270 hlineto
          -51 -246 rlineto
          269 hlineto
          -203 -951 rlineto
          -271 hlineto
          -51 -246 rlineto
          270 hlineto
          304 hlineto
          270 hlineto
          51 246 rlineto
          -269 hlineto
          203 951 rlineto
          endchar
        </CharString>
        <CharString name="Iecyrillic">
          -74 1064 258 -101 callsubr
          endchar
        </CharString>
        <CharString name="Igrave">
          -703 353 hmoveto
          -90 callgsubr
          370 1557 -42 callgsubr
          endchar
        </CharString>
        <CharString name="Igrave.1">
          -261 855 1557 rmoveto
          -161 307 rlineto
          -258 hlineto
          203 -307 rlineto
          461 -360 rmoveto
          51 246 rlineto
          -270 hlineto
          -304 hlineto
          -270 hlineto
          -51 -246 rlineto
          269 hlineto
          -203 -951 rlineto
          -271 hlineto
          -51 -246 rlineto
          270 hlineto
          304 hlineto
          270 hlineto
          51 246 rlineto
          -269 hlineto
          203 951 rlineto
          endchar
        </CharString>
        <CharString name="Ihookabove">
          -703 353 hmoveto
          -90 callgsubr
          334 1787 -69 callsubr
        </CharString>
        <CharString name="Ihookabove.1">
          -261 738 1512 rmoveto
          146 50 95 106 110 vvcurveto
          100 -84 66 -132 -43 -55 -9 -13 -32 vhcurveto
          -30 -135 rlineto
          8 28 40 6 32 hhcurveto
          58 37 -24 -40 -48 -49 -43 -73 -22 hvcurveto
          424 -427 rmoveto
          51 246 rlineto
          -270 hlineto
          -304 hlineto
          -270 hlineto
          -51 -246 rlineto
          269 hlineto
          -203 -951 rlineto
          -271 hlineto
          -51 -246 rlineto
          270 hlineto
          304 hlineto
          270 hlineto
          51 246 rlineto
          -269 hlineto
          203 951 rlineto
          endchar
        </CharString>
        <CharString name="Iicyrillic">
          262 1015 hmoveto
          -55 callsubr
          endchar
        </CharString>
        <CharString name="Iinvertedbreve">
          -703 353 hmoveto
          -90 callgsubr
          837 1539 -60 callgsubr
        </CharString>
        <CharString name="Iinvertedbreve.1">
          -261 1106 1539 rmoveto
          5 19 3 23 23 vvcurveto
          145 -112 111 -187 -228 -153 -136 -185 -44 vhcurveto
          184 hlineto
          102 25 82 68 107 hhcurveto
          93 53 -51 -81 -14 -3 -14 -3 -10 hvcurveto
          172 -342 rmoveto
          51 246 rlineto
          -270 hlineto
          -304 hlineto
          -270 hlineto
          -51 -246 rlineto
          269 hlineto
          -203 -951 rlineto
          -271 hlineto
          -51 -246 rlineto
          270 hlineto
          304 hlineto
          270 hlineto
          51 246 rlineto
          -269 hlineto
          203 951 rlineto
          endchar
        </CharString>
        <CharString name="Iishortcyrillic">
          262 1015 hmoveto
          -55 callsubr
          -513 901 -76 callsubr
        </CharString>
        <CharString name="Imacron">
          -703 353 hmoveto
          -90 callgsubr
          875 1770 -80 callgsubr
        </CharString>
        <CharString name="Imacron.1">
          -261 1144 1770 rmoveto
          -691 hlineto
          -32 -151 rlineto
          692 hlineto
          -13 -422 rmoveto
          51 246 rlineto
          -270 hlineto
          -304 hlineto
          -270 hlineto
          -51 -246 rlineto
          269 hlineto
          -203 -951 rlineto
          -271 hlineto
          -51 -246 rlineto
          270 hlineto
          304 hlineto
          270 hlineto
          51 246 rlineto
          -269 hlineto
          203 951 rlineto
          endchar
        </CharString>
        <CharString name="Iocyrillic">
          -74 1064 258 -101 callsubr
          -327 1586 -105 callgsubr
        </CharString>
        <CharString name="Iogonek">
          -703 131 -464 rmoveto
          60 54 9 15 30 hvcurveto
          33 159 rlineto
          -7 -14 -30 -4 -29 hhcurveto
          -63 -38 28 49 69 67 79 125 63 hvcurveto
          29 12 305 1435 rlineto
          -304 hlineto
          -309 -1451 33 -2 rlineto
          -114 -91 -59 -93 -87 vvcurveto
          -110 90 -73 134 vhcurveto
          endchar
        </CharString>
        <CharString name="Iogonek.1">
          -261 256 1197 rmoveto
          270 hlineto
          -206 -951 rlineto
          -269 hlineto
          -51 -246 rlineto
          579 hlineto
          -1 -4 rlineto
          -135 -67 -90 -109 90 callsubr
          33 159 rlineto
          -6 -15 -29 -5 -29 hhcurveto
          -65 -36 28 46 76 96 79 135 57 hvcurveto
          35 12 49 240 rlineto
          -271 hlineto
          206 951 rlineto
          270 -28 callsubr
          endchar
        </CharString>
        <CharString name="Iotadieresisgreek">
          17 callsubr
        </CharString>
        <CharString name="Iotadieresisgreek.1">
          -261 981 1586 rmoveto
          73 57 57 70 70 -57 57 -73 -73 -56 -57 -70 -70 56 -57 73 hvcurveto
          -395 0 rmoveto
          73 57 57 70 70 -57 57 -73 -73 -56 -57 -70 -70 56 -57 73 hvcurveto
          514 -389 rmoveto
          51 246 rlineto
          -270 hlineto
          -304 hlineto
          -270 hlineto
          -51 -246 rlineto
          269 hlineto
          -203 -951 rlineto
          -271 hlineto
          -51 -246 rlineto
          270 hlineto
          304 hlineto
          270 hlineto
          51 246 rlineto
          -269 hlineto
          203 951 rlineto
          endchar
        </CharString>
        <CharString name="Iotagreek">
          -703 353 77 callgsubr
        </CharString>
        <CharString name="Iotagreek.1">
          -261 1100 1197 rmoveto
          51 246 rlineto
          -270 hlineto
          -304 hlineto
          -270 hlineto
          -51 -246 rlineto
          269 hlineto
          -203 -951 rlineto
          -271 hlineto
          -51 -246 rlineto
          270 hlineto
          304 hlineto
          270 hlineto
          51 246 rlineto
          -269 hlineto
          203 951 rlineto
          endchar
        </CharString>
        <CharString name="Iotatonosgreek">
          -325 164 4 callsubr
          420 -1443 -73 callgsubr
          endchar
        </CharString>
        <CharString name="Iotatonosgreek.1">
          136 311 1443 rmoveto
          -147 -322 rlineto
          230 hlineto
          223 322 rlineto
          880 -246 rmoveto
          51 246 rlineto
          -270 hlineto
          -304 hlineto
          -270 hlineto
          -51 -246 rlineto
          269 hlineto
          -203 -951 rlineto
          -271 hlineto
          -51 -246 rlineto
          270 hlineto
          304 hlineto
          270 hlineto
          51 246 rlineto
          -269 hlineto
          203 951 rlineto
          endchar
        </CharString>
        <CharString name="Itilde">
          -703 353 hmoveto
          -90 callgsubr
          644 1546 rmoveto
          -103 callgsubr
          endchar
        </CharString>
        <CharString name="Itilde.1">
          -261 1013 1825 rmoveto
          -81 -19 -35 -41 -42 hhcurveto
          -77 -28 133 -144 hhcurveto
          -127 -102 -106 -169 -33 hvcurveto
          161 hlineto
          76 17 37 43 43 hhcurveto
          79 31 -134 139 hhcurveto
          124 102 110 169 36 hvcurveto
          -598 -382 rmoveto
          -270 hlineto
          -51 -246 rlineto
          269 hlineto
          -203 -951 rlineto
          -271 hlineto
          -51 -246 rlineto
          270 hlineto
          304 hlineto
          270 hlineto
          51 246 rlineto
          -269 hlineto
          203 951 rlineto
          271 hlineto
          51 246 rlineto
          -270 hlineto
          endchar
        </CharString>
        <CharString name="Itildebelow">
          -703 353 hmoveto
          -90 callgsubr
          218 -455 rmoveto
          -103 callgsubr
          endchar
        </CharString>
        <CharString name="Itildebelow.1">
          -261 142 -440 rmoveto
          76 17 37 43 43 hhcurveto
          79 31 -134 139 hhcurveto
          124 102 110 169 36 hvcurveto
          -162 hlineto
          -81 -19 -35 -41 -42 hhcurveto
          -77 -28 133 -144 hhcurveto
          -127 -102 -106 -169 -33 hvcurveto
          1119 1637 rmoveto
          51 246 rlineto
          -270 hlineto
          -304 hlineto
          -270 hlineto
          -51 -246 rlineto
          269 hlineto
          -203 -951 rlineto
          -271 hlineto
          -51 -246 rlineto
          270 hlineto
          304 hlineto
          270 hlineto
          51 246 rlineto
          -269 hlineto
          203 951 rlineto
          endchar
        </CharString>
        <CharString name="J">
          -112 52 387 -63 callsubr
          endchar
        </CharString>
        <CharString name="Jcircumflex">
          -112 52 387 -63 callsubr
          1244 1479 -72 callgsubr
        </CharString>
        <CharString name="Jecyrillic">
          -102 57 387 -63 callsubr
          endchar
        </CharString>
        <CharString name="K">
          -68 callgsubr
          endchar
        </CharString>
        <CharString name="Kacute">
          -68 callgsubr
          997 1557 -84 callgsubr
        </CharString>
        <CharString name="Kacyrillic">
          119 1564 1443 rmoveto
          -363 hlineto
          -658 -619 rlineto
          -10 hlineto
          132 619 rlineto
          -304 hlineto
          -307 -1443 rlineto
          304 hlineto
          133 614 rlineto
          11 hlineto
          428 -614 rlineto
          346 hlineto
          -487 712 rlineto
          endchar
        </CharString>
        <CharString name="Kappagreek">
          -68 callgsubr
          endchar
        </CharString>
        <CharString name="Kcaron">
          -68 callgsubr
          763 1547 -88 callsubr
        </CharString>
        <CharString name="Kcommaaccent">
          -68 callgsubr
          421 -475 -43 callsubr
        </CharString>
        <CharString name="Kdotbelow">
          -68 callgsubr
          512 -460 -101 callgsubr
        </CharString>
        <CharString name="Kjecyrillic">
          119 1366 1864 rmoveto
          -283 hlineto
          -291 -307 rlineto
          242 hlineto
          530 -114 rmoveto
          -363 hlineto
          -658 -619 rlineto
          -10 hlineto
          132 619 rlineto
          -304 hlineto
          -307 -1443 rlineto
          304 hlineto
          133 614 rlineto
          11 hlineto
          428 -614 rlineto
          346 hlineto
          -487 712 rlineto
          endchar
        </CharString>
        <CharString name="Klinebelow">
          -68 callgsubr
          875 -233 -80 callgsubr
        </CharString>
        <CharString name="L">
          -139 1048 263 65 callgsubr
        </CharString>
        <CharString name="Lacute">
          -139 1048 263 -39 callgsubr
          -338 1557 -84 callgsubr
        </CharString>
        <CharString name="Lambdagreek">
          117 866 1150 rmoveto
          7 hlineto
          95 -1150 rlineto
          302 hlineto
          -166 -53 callsubr
          -356 hlineto
          -796 -36 callgsubr
          324 hlineto
          endchar
        </CharString>
        <CharString name="Lcaron">
          -139 937 28 callsubr
          -135 -1180 65 callgsubr
        </CharString>
        <CharString name="Lcircumflexbelow">
          -139 1048 263 -39 callgsubr
          -393 -165 -94 callgsubr
          216 hlineto
          endchar
        </CharString>
        <CharString name="Lcommaaccent">
          -139 1048 263 -39 callgsubr
          -622 -475 -43 callsubr
        </CharString>
        <CharString name="Ldotbelow">
          -139 1048 263 -39 callgsubr
          -531 -460 -101 callgsubr
        </CharString>
        <CharString name="Ldotbelowmacron">
          -139 1048 263 -39 callgsubr
          -531 -460 -102 callgsubr
          461 2230 -80 callgsubr
        </CharString>
        <CharString name="Ljecyrillic">
          915 596 573 rmoveto
          167 612 rlineto
          418 hlineto
          -254 -1185 rlineto
          599 hlineto
          371 241 238 310 273 -190 163 -302 hvcurveto
          -207 hlineto
          99 459 rlineto
          -993 hlineto
          -224 -849 rlineto
          -191 -52 -70 -139 -140 hhcurveto
          -26 -26 5 3 -14 hvcurveto
          -56 -272 rlineto
          -6 18 39 -7 49 hhcurveto
          323 131 211 375 99 hvcurveto
          987 163 rmoveto
          152 98 -73 -145 -157 -132 -116 -182 113 callgsubr
          107 491 rlineto
          endchar
        </CharString>
        <CharString name="Llinebelow">
          -139 1048 263 -39 callgsubr
          -168 -233 -80 callgsubr
        </CharString>
        <CharString name="Lslash">
          -139 408 263 rmoveto
          81 378 301 142 54 260 -300 -141 116 541 rlineto
          -304 hlineto
          -149 -700 -138 -65 -54 -260 137 64 -103 -482 rlineto
          945 hlineto
          54 263 rlineto
          endchar
        </CharString>
        <CharString name="M">
          523 322 20 callsubr
        </CharString>
        <CharString name="Macute">
          523 322 -70 callsubr
          1175 1557 -84 callgsubr
        </CharString>
        <CharString name="Mdotaccent">
          523 322 -70 callsubr
          1093 1607 -101 callgsubr
        </CharString>
        <CharString name="Mdotbelow">
          523 322 -70 callsubr
          699 -460 -101 callgsubr
        </CharString>
        <CharString name="Mugreek">
          523 322 20 callsubr
        </CharString>
        <CharString name="N">
          217 -88 callgsubr
          endchar
        </CharString>
        <CharString name="Nacute">
          217 -88 callgsubr
          1049 1557 -84 callgsubr
        </CharString>
        <CharString name="Ncaron">
          217 -88 callgsubr
          815 1547 -88 callsubr
        </CharString>
        <CharString name="Ncircumflexbelow">
          217 -88 callgsubr
          701 -165 -94 callgsubr
          216 hlineto
          endchar
        </CharString>
        <CharString name="Ncommaaccent">
          217 -88 callgsubr
          472 -475 -43 callsubr
        </CharString>
        <CharString name="Ndotaccent">
          217 -88 callgsubr
          966 1607 -101 callgsubr
        </CharString>
        <CharString name="Ndotbelow">
          217 -88 callgsubr
          563 -460 -101 callgsubr
        </CharString>
        <CharString name="Ngrave">
          217 -88 callgsubr
          812 1557 -42 callgsubr
          endchar
        </CharString>
        <CharString name="Njecyrillic">
          914 943 hmoveto
          600 hlineto
          365 229 214 280 232 -183 146 -292 hvcurveto
          -230 hlineto
          122 571 rlineto
          -304 hlineto
          -122 -571 rlineto
          -583 hlineto
          123 571 30 callgsubr
          133 620 rlineto
          583 hlineto
          222 -375 rmoveto
          84 384 rlineto
          223 hlineto
          136 90 -52 -115 -126 -113 -91 -178 hvcurveto
          endchar
        </CharString>
        <CharString name="Nlinebelow">
          217 -88 callgsubr
          926 -233 -80 callgsubr
        </CharString>
        <CharString name="Ntilde">
          217 -88 callgsubr
          1086 1546 rmoveto
          -103 callgsubr
          endchar
        </CharString>
        <CharString name="Nugreek">
          217 -88 callgsubr
          endchar
        </CharString>
        <CharString name="NumberSignCyrillic">
          1047 352 hmoveto
          199 918 rlineto
          18 hlineto
          433 -918 rlineto
          254 -57 callsubr
          -289 hlineto
          -199 -913 rlineto
          -18 hlineto
          -433 913 rlineto
          -255 -95 callgsubr
          2161 407 rmoveto
          45 220 rlineto
          -684 hlineto
          -45 -220 rlineto
          624 710 rmoveto
          -113 -72 -80 -102 -84 -54 59 92 113 71 79 102 83 56 -60 -90 vhcurveto
          226 9 rmoveto
          204 -140 134 -213 -239 -172 -167 -232 -204 139 -134 212 240 173 167 232 vhcurveto
          endchar
        </CharString>
        <CharString name="O">
          297 922 1207 -106 callsubr
          endchar
        </CharString>
        <CharString name="OE">
          985 1159 hmoveto
          902 hlineto
          52 258 rlineto
          -653 hlineto
          78 351 rlineto
          615 hlineto
          50 239 rlineto
          -616 hlineto
          74 337 rlineto
          653 hlineto
          53 258 rlineto
          -901 hlineto
          -53 -247 rlineto
          -6 hlineto
          175 -92 -166 96 -216 hhcurveto
          -449 -327 -379 -490 -372 234 -250 350 178 164 70 122 105 hvcurveto
          6 hlineto
          61 662 rmoveto
          -326 -196 -268 -267 -199 -129 148 230 325 197 268 266 200 128 -147 -230 vhcurveto
          endchar
        </CharString>
        <CharString name="Oacute">
          297 922 1207 -106 callsubr
          309 1581 -84 callgsubr
        </CharString>
        <CharString name="Obreve">
          297 922 1207 -106 callsubr
          -108 1884 -75 callgsubr
          endchar
        </CharString>
        <CharString name="Ocaron">
          297 922 1207 -106 callsubr
          75 1571 -88 callsubr
        </CharString>
        <CharString name="Ocircumflex">
          297 922 1207 -106 callsubr
          358 1890 -72 callgsubr
        </CharString>
        <CharString name="Ocircumflexacute">
          297 922 1207 -106 callsubr
          118 1846 -59 callgsubr
          11 60 -17 callsubr
          endchar
        </CharString>
        <CharString name="Ocircumflexdotbelow">
          297 922 1207 -106 callsubr
          358 1890 -94 callgsubr
          215 hlineto
          -632 -2007 -101 callgsubr
        </CharString>
        <CharString name="Ocircumflexgrave">
          297 922 1207 -106 callsubr
          118 1846 -59 callgsubr
          255 60 -18 callsubr
          endchar
        </CharString>
        <CharString name="Ocircumflexhookabove">
          297 922 1207 -106 callsubr
          118 1846 -59 callgsubr
          17 166 rmoveto
          10 30 33 5 32 hhcurveto
          56 36 -25 -38 -47 -41 -38 -58 -18 hvcurveto
          70 -105 rlineto
          122 44 84 92 112 vvcurveto
          98 -81 62 -127 -43 -53 -8 -13 -30 vhcurveto
          endchar
        </CharString>
        <CharString name="Ocircumflextilde">
          297 922 1207 -106 callsubr
          401 1901 -45 callsubr
        </CharString>
        <CharString name="Ocyrillic">
          307 927 1207 -106 callsubr
          endchar
        </CharString>
        <CharString name="Odblgrave">
          297 922 1207 -106 callsubr
          -118 1581 -42 callgsubr
          598 -307 rmoveto
          216 hlineto
          -161 307 rlineto
          -257 hlineto
          endchar
        </CharString>
        <CharString name="Odieresis">
          297 922 1207 -106 callsubr
          19 1610 -105 callgsubr
        </CharString>
        <CharString name="Odieresismacron">
          297 922 1207 -106 callsubr
          12 1829 -41 callsubr
        </CharString>
        <CharString name="Odotaccent">
          297 922 1207 -106 callsubr
          226 1631 -101 callgsubr
        </CharString>
        <CharString name="Odotaccentmacron">
          297 922 1207 -106 callsubr
          214 1578 16 callsubr
        </CharString>
        <CharString name="Odotbelow">
          297 922 1207 -106 callsubr
          -73 -436 -101 callgsubr
        </CharString>
        <CharString name="Ograve">
          297 922 1207 -106 callsubr
          72 1581 -42 callgsubr
          endchar
        </CharString>
        <CharString name="Ohookabove">
          297 922 1207 -106 callsubr
          36 1811 -69 callsubr
        </CharString>
        <CharString name="Ohorn">
          -89 callsubr
          endchar
        </CharString>
        <CharString name="Ohornacute">
          -89 callsubr
          -468 711 -84 callgsubr
        </CharString>
        <CharString name="Ohorndotbelow">
          -89 callsubr
          -850 -1306 -101 callgsubr
        </CharString>
        <CharString name="Ohorngrave">
          -89 callsubr
          -705 711 -42 callgsubr
          endchar
        </CharString>
        <CharString name="Ohornhookabove">
          -89 callsubr
          -741 941 -69 callsubr
        </CharString>
        <CharString name="Ohorntilde">
          -89 callsubr
          -431 700 rmoveto
          -103 callgsubr
          endchar
        </CharString>
        <CharString name="Ohungarumlaut">
          297 922 1207 -106 callsubr
          518 1581 -1 callgsubr
        </CharString>
        <CharString name="Oinvertedbreve">
          297 922 1207 -106 callsubr
          539 1563 -60 callgsubr
        </CharString>
        <CharString name="Omacron">
          297 922 1207 -106 callsubr
          577 1794 -80 callgsubr
        </CharString>
        <CharString name="Omacronacute">
          297 922 1207 -106 callsubr
          541 86 callgsubr
          289 282 -17 callsubr
          endchar
        </CharString>
        <CharString name="Omacrongrave">
          297 922 1207 -106 callsubr
          541 86 callgsubr
          512 282 -18 callsubr
          endchar
        </CharString>
        <CharString name="Omegagreek">
          321 849 hmoveto
          -8 callgsubr
        </CharString>
        <CharString name="Omegatonosgreek">
          614 164 4 callsubr
          831 -1443 rmoveto
          -8 callgsubr
        </CharString>
        <CharString name="Omicrongreek">
          297 922 1207 -106 callsubr
          endchar
        </CharString>
        <CharString name="Omicrontonosgreek">
          546 164 4 callsubr
          860 -236 -106 callsubr
          endchar
        </CharString>
        <CharString name="Oogonek">
          -25 callgsubr
          endchar
        </CharString>
        <CharString name="Oogonekmacron">
          -25 callgsubr
          108 940 -80 callgsubr
        </CharString>
        <CharString name="Oslash">
          297 1233 966 rmoveto
          11 -41 6 -45 -50 vvcurveto
          -328 -198 -266 -265 -84 -72 26 48 -54 vhcurveto
          -100 167 rmoveto
          -12 41 -6 46 50 vvcurveto
          327 198 266 265 84 72 -26 -48 55 vhcurveto
          483 217 rmoveto
          -131 135 -147 -147 rlineto
          82 -105 -139 47 -167 hhcurveto
          -440 -335 -367 -503 -134 33 -120 61 -97 hvcurveto
          -153 -153 132 -135 147 147 rlineto
          -82 105 139 -47 165 hhcurveto
          439 338 366 504 134 -33 120 -61 98 hvcurveto
          endchar
        </CharString>
        <CharString name="Oslashacute">
          297 1422 1864 rmoveto
          -283 hlineto
          -291 -307 rlineto
          242 hlineto
          143 -591 rmoveto
          11 -41 6 -45 -50 vvcurveto
          -328 -198 -266 -265 -84 -72 26 48 -54 vhcurveto
          -100 167 rmoveto
          -12 41 -6 46 50 vvcurveto
          327 198 266 265 84 72 -26 -48 55 vhcurveto
          483 217 rmoveto
          -131 135 -147 -147 rlineto
          82 -105 -139 47 -167 hhcurveto
          -440 -335 -367 -503 -134 33 -120 61 -97 hvcurveto
          -153 -153 132 -135 147 147 rlineto
          -82 105 139 -47 165 hhcurveto
          439 338 366 504 134 -33 120 -61 98 hvcurveto
          endchar
        </CharString>
        <CharString name="Otilde">
          297 922 1207 -106 callsubr
          346 1570 rmoveto
          -103 callgsubr
          endchar
        </CharString>
        <CharString name="Otildeacute">
          297 922 1207 -106 callsubr
          140 1915 rmoveto
          228 hlineto
          266 243 rlineto
          -258 hlineto
          -43 -596 -51 callsubr
          endchar
        </CharString>
        <CharString name="Otildedieresis">
          297 922 1207 -106 callsubr
          333 1562 -51 callsubr
          -247 621 rmoveto
          -75 -57 -58 -72 -72 57 -58 75 74 57 58 72 72 110 callsubr
          -72 -72 56 -58 75 75 56 58 72 72 -56 58 -75 hvcurveto
          endchar
        </CharString>
        <CharString name="Otildemacron">
          297 922 1207 -106 callsubr
          642 2101 105 callsubr
          -277 -388 -51 callsubr
          endchar
        </CharString>
        <CharString name="P">
          36 356 1443 -66 callgsubr
          endchar
        </CharString>
        <CharString name="Pacute">
          36 356 1443 -66 callgsubr
          402 864 -84 callgsubr
        </CharString>
        <CharString name="Pdotaccent">
          36 356 1443 -66 callgsubr
          319 914 -101 callgsubr
        </CharString>
        <CharString name="Pecyrillic">
          242 1293 44 callsubr
        </CharString>
        <CharString name="Phigreek">
          559 669 -110 rmoveto
          281 hlineto
          31 144 rlineto
          519 25 324 322 421 vvcurveto
          324 -206 216 -352 41 vhcurveto
          32 156 rlineto
          -280 hlineto
          -32 -150 rlineto
          -522 -25 -321 -324 -421 vvcurveto
          -313 199 -224 359 -42 vhcurveto
          51 247 rmoveto
          -196 24 -115 121 194 vvcurveto
          303 201 189 293 24 vhcurveto
          97 -861 rmoveto
          183 855 rlineto
          194 -23 117 -119 -197 vvcurveto
          -296 -192 -194 -302 -26 vhcurveto
          endchar
        </CharString>
        <CharString name="Pigreek">
          229 1285 hmoveto
          -70 callgsubr
          -1236 -95 callgsubr
          308 hlineto
          255 64 callsubr
          619 hlineto
          -255 -1185 rlineto
          endchar
        </CharString>
        <CharString name="Psigreek">
          460 927 hmoveto
          64 298 439 21 201 170 73 344 rlinecurve
          129 610 rlineto
          -290 hlineto
          -123 -581 -42 -198 -103 -101 -232 -12 rlinecurve
          191 892 rlineto
          -288 hlineto
          -190 -884 rlineto
          -170 8 -83 63 139 vvcurveto
          32 5 37 12 57 vhcurveto
          115 548 69 callgsubr
          -121 -576 rlineto
          -9 -45 -4 -41 -41 vvcurveto
          -258 168 -149 324 -28 vhcurveto
          -65 -305 rlineto
          endchar
        </CharString>
        <CharString name="Q">
          297 1328 -141 rmoveto
          -119 257 rlineto
          217 160 132 261 309 vvcurveto
          363 -239 258 -392 -440 -335 -367 -503 -364 242 -257 387 69 68 10 17 63 vhcurveto
          69 -144 rlineto
          -263 377 rmoveto
          -199 -129 148 230 327 198 266 265 199 129 -147 -230 -176 -65 -159 -106 -99 hvcurveto
          -48 82 rlineto
          -259 hlineto
          108 -231 rlineto
          -7 -34 -29 -4 -30 hhcurveto
          endchar
        </CharString>
        <CharString name="R">
          77 513 755 rmoveto
          97 444 rlineto
          254 hlineto
          134 79 -70 -122 -148 -119 -104 -177 hvcurveto
          -425 688 rmoveto
          -307 -1443 rlineto
          305 hlineto
          112 523 rlineto
          256 hlineto
          163 -523 rlineto
          316 hlineto
          -181 556 rlineto
          232 70 132 196 213 vvcurveto
          239 -163 169 -288 vhcurveto
          endchar
        </CharString>
        <CharString name="Racute">
          77 1284 1864 rmoveto
          -283 hlineto
          -291 -307 rlineto
          242 hlineto
          -439 -802 rmoveto
          97 444 rlineto
          254 hlineto
          134 79 -70 -122 -148 -119 -104 -177 hvcurveto
          -425 688 rmoveto
          -307 -1443 rlineto
          305 hlineto
          112 523 rlineto
          256 hlineto
          163 -523 rlineto
          316 hlineto
          -181 556 rlineto
          232 70 132 196 213 vvcurveto
          239 -163 169 -288 vhcurveto
          endchar
        </CharString>
        <CharString name="Rcaron">
          77 942 1547 rmoveto
          336 319 rlineto
          -227 hlineto
          -197 -192 rlineto
          -7 hlineto
          -116 192 rlineto
          -215 hlineto
          202 -319 rlineto
          -205 -792 rmoveto
          97 444 rlineto
          254 hlineto
          134 79 -70 -122 -148 -119 -104 -177 hvcurveto
          -425 688 rmoveto
          -307 -1443 rlineto
          305 hlineto
          112 523 rlineto
          256 hlineto
          163 -523 rlineto
          316 hlineto
          -181 556 rlineto
          232 70 132 196 213 vvcurveto
          239 -163 169 -288 vhcurveto
          endchar
        </CharString>
        <CharString name="Rcommaaccent">
          77 238 -475 rmoveto
          221 hlineto
          241 338 rlineto
          -261 hlineto
          74 892 rmoveto
          97 444 rlineto
          254 hlineto
          134 79 -70 -122 -148 -119 -104 -177 hvcurveto
          -425 688 rmoveto
          -307 -1443 rlineto
          305 hlineto
          112 523 rlineto
          256 hlineto
          163 -523 rlineto
          316 hlineto
          -181 556 rlineto
          232 70 132 196 213 vvcurveto
          239 -163 169 -288 vhcurveto
          endchar
        </CharString>
        <CharString name="Rdblgrave">
          77 1136 1557 rmoveto
          -161 307 rlineto
          -257 hlineto
          202 -307 rlineto
          -179 0 rmoveto
          -161 307 rlineto
          -258 hlineto
          203 -307 rlineto
          -12 -802 rmoveto
          97 444 rlineto
          254 hlineto
          134 79 -70 -122 -148 -119 -104 -177 hvcurveto
          -425 688 rmoveto
          -307 -1443 rlineto
          305 hlineto
          112 523 rlineto
          256 hlineto
          163 -523 rlineto
          316 hlineto
          -181 556 rlineto
          232 70 132 196 213 vvcurveto
          239 -163 169 -288 vhcurveto
          endchar
        </CharString>
        <CharString name="Rdotaccent">
          77 869 1607 rmoveto
          84 66 68 83 82 -66 69 -84 -84 -67 -69 -82 -83 67 -68 84 hvcurveto
          -356 -852 rmoveto
          97 444 rlineto
          254 hlineto
          134 79 -70 -122 -148 -119 -104 -177 hvcurveto
          -425 688 rmoveto
          -307 -1443 rlineto
          305 hlineto
          112 523 rlineto
          256 hlineto
          163 -523 rlineto
          316 hlineto
          -181 556 rlineto
          232 70 132 196 213 vvcurveto
          239 -163 169 -288 vhcurveto
          endchar
        </CharString>
        <CharString name="Rdotbelow">
          77 550 -158 rmoveto
          -84 -67 -69 -82 -83 67 -68 84 84 66 68 83 82 -66 69 -84 hvcurveto
          -37 913 rmoveto
          97 444 rlineto
          254 hlineto
          134 79 -70 -122 -148 -119 -104 -177 hvcurveto
          -425 688 rmoveto
          -307 -1443 rlineto
          305 hlineto
          112 523 rlineto
          256 hlineto
          163 -523 rlineto
          316 hlineto
          -181 556 rlineto
          232 70 132 196 213 vvcurveto
          239 -163 169 -288 vhcurveto
          endchar
        </CharString>
        <CharString name="Rdotbelowmacron">
          77 1220 1770 rmoveto
          -691 hlineto
          -32 -151 rlineto
          692 hlineto
          -639 -1777 rmoveto
          -84 -67 -69 -82 -83 67 -68 84 84 66 68 83 82 -66 69 -84 hvcurveto
          -37 913 rmoveto
          97 444 rlineto
          254 hlineto
          134 79 -70 -122 -148 -119 -104 -177 hvcurveto
          -425 688 rmoveto
          -307 -1443 rlineto
          305 hlineto
          112 523 rlineto
          256 hlineto
          163 -523 rlineto
          316 hlineto
          -181 556 rlineto
          232 70 132 196 213 vvcurveto
          239 -163 169 -288 vhcurveto
          endchar
        </CharString>
        <CharString name="Rhogreek">
          36 356 1443 -66 callgsubr
          endchar
        </CharString>
        <CharString name="Rinvertedbreve">
          77 1182 1539 rmoveto
          5 19 3 23 23 vvcurveto
          145 -112 111 -187 -228 -153 -136 -185 -44 vhcurveto
          184 hlineto
          102 25 82 68 107 hhcurveto
          93 53 -51 -81 -14 -3 -14 -3 -10 hvcurveto
          -491 -784 rmoveto
          97 444 rlineto
          254 hlineto
          134 79 -70 -122 -148 -119 -104 -177 hvcurveto
          -425 688 rmoveto
          -307 -1443 rlineto
          305 hlineto
          112 523 rlineto
          256 hlineto
          163 -523 rlineto
          316 hlineto
          -181 556 rlineto
          232 70 132 196 213 vvcurveto
          239 -163 169 -288 vhcurveto
          endchar
        </CharString>
        <CharString name="Rlinebelow">
          77 190 -384 rmoveto
          692 hlineto
          31 151 rlineto
          -691 hlineto
          291 988 rmoveto
          97 444 rlineto
          254 hlineto
          134 79 -70 -122 -148 -119 -104 -177 hvcurveto
          -425 688 rmoveto
          -307 -1443 rlineto
          305 hlineto
          112 523 rlineto
          256 hlineto
          163 -523 rlineto
          316 hlineto
          -181 556 rlineto
          232 70 132 196 213 vvcurveto
          239 -163 169 -288 vhcurveto
          endchar
        </CharString>
        <CharString name="S">
          50 81 425 rmoveto
          -102 callsubr
          endchar
        </CharString>
        <CharString name="Sacute">
          51 81 425 rmoveto
          -102 callsubr
          603 1132 -84 callgsubr
        </CharString>
        <CharString name="Sacutedotaccent">
          51 81 425 rmoveto
          -102 callsubr
          768 1135 103 callgsubr
          -283 hlineto
          -291 -307 rlineto
          -207 3 -101 callgsubr
        </CharString>
        <CharString name="Scaron">
          51 81 425 rmoveto
          -102 callsubr
          369 1122 -88 callsubr
        </CharString>
        <CharString name="Scarondotaccent">
          51 81 425 rmoveto
          -102 callsubr
          363 1113 32 callgsubr
        </CharString>
        <CharString name="Scedilla">
          51 757 872 rmoveto
          -145 43 -59 53 82 vvcurveto
          92 88 80 159 161 101 -79 -115 5 vhcurveto
          283 hlineto
          274 -1 -220 165 -333 hhcurveto
          -322 -229 -181 -272 -197 122 -123 240 -74 hvcurveto
          124 -39 rlineto
          157 -48 52 -47 -87 vvcurveto
          -111 -110 -66 -154 -169 -119 84 119 -16 vhcurveto
          -291 hlineto
          5 -251 189 -159 284 -33 -68 -101 rcurveline
          -22 -101 rlineto
          58 hlineto
          96 37 -15 -36 -37 -42 -20 -76 -45 -46 7 11 -34 hvcurveto
          -29 -140 rlineto
          -12 34 64 -9 59 hhcurveto
          169 118 91 128 89 -59 53 -104 5 hvcurveto
          56 83 rlineto
          329 19 197 196 255 vvcurveto
          197 -117 113 -250 75 vhcurveto
          endchar
        </CharString>
        <CharString name="Scircumflex">
          51 81 425 rmoveto
          -102 callsubr
          652 1441 -72 callgsubr
        </CharString>
        <CharString name="Scommaaccent">
          51 81 425 rmoveto
          -102 callsubr
          129 -900 -43 callsubr
        </CharString>
        <CharString name="Sdotaccent">
          51 81 425 rmoveto
          -102 callsubr
          520 1182 -101 callgsubr
        </CharString>
        <CharString name="Sdotbelow">
          51 81 425 rmoveto
          -102 callsubr
          220 -885 -101 callgsubr
        </CharString>
        <CharString name="Sdotbelowdotaccent">
          51 81 425 rmoveto
          -102 callsubr
          220 -885 -102 callgsubr
          300 2067 -101 callgsubr
        </CharString>
        <CharString name="Shacyrillic">
          731 54 hmoveto
          1728 hlineto
          51 callgsubr
          -254 -1185 rlineto
          -408 65 callsubr
          -254 -1185 rlineto
          -408 65 callsubr
          endchar
        </CharString>
        <CharString name="Shchacyrillic">
          807 1901 -285 rmoveto
          63 callgsubr
          -304 hlineto
          -254 -1185 rlineto
          -408 65 callsubr
          -254 -1185 rlineto
          -408 65 callsubr
          -307 -1443 rlineto
          1635 107 callgsubr
          endchar
        </CharString>
        <CharString name="Sigmagreek">
          28 443 263 rmoveto
          410 468 5 18 -191 430 1 6 rlineto
          687 hlineto
          53 258 rlineto
          -1066 hlineto
          -44 -216 231 -492 -480 -546 -39 -189 rlineto
          1113 hlineto
          52 257 rlineto
          -733 hlineto
          endchar
        </CharString>
        <CharString name="Softsigncyrillic">
          40 709 727 rmoveto
          152 98 -71 -138 -162 -132 -111 -180 113 callgsubr
          105 482 rlineto
          -460 -727 rmoveto
          600 hlineto
          358 252 213 329 273 -191 160 -302 hvcurveto
          -207 hlineto
          101 468 rlineto
          -304 hlineto
          endchar
        </CharString>
        <CharString name="T">
          4 707 49 callsubr
        </CharString>
        <CharString name="Taugreek">
          4 707 49 callsubr
        </CharString>
        <CharString name="Tbar">
          4 1392 1185 rmoveto
          53 258 rlineto
          -1168 hlineto
          -53 -258 rlineto
          432 hlineto
          -71 -333 rlineto
          -297 hlineto
          -53 -258 rlineto
          295 hlineto
          -127 -594 rlineto
          304 hlineto
          127 594 rlineto
          336 hlineto
          52 258 rlineto
          -333 hlineto
          71 333 rlineto
          endchar
        </CharString>
        <CharString name="Tcaron">
          4 707 hmoveto
          -61 callgsubr
          373 1547 -88 callsubr
        </CharString>
        <CharString name="Tcedilla">
          4 277 1443 rmoveto
          -53 -258 rlineto
          432 hlineto
          -253 -1185 rlineto
          135 hlineto
          -80 -119 -22 -101 rlineto
          58 hlineto
          96 37 -15 -36 -37 -42 -20 -76 -45 -46 7 11 -34 hvcurveto
          -29 -140 rlineto
          -12 34 64 -9 59 hhcurveto
          169 118 91 128 89 -59 53 -104 5 hvcurveto
          71 105 253 1185 rlineto
          432 hlineto
          53 258 rlineto
          endchar
        </CharString>
        <CharString name="Tcircumflexbelow">
          4 707 hmoveto
          -61 callgsubr
          225 -165 -94 callgsubr
          216 hlineto
          endchar
        </CharString>
        <CharString name="Tcommaaccent">
          4 707 hmoveto
          -61 callgsubr
          -4 -475 -43 callsubr
        </CharString>
        <CharString name="Tdotaccent">
          4 707 hmoveto
          -61 callgsubr
          525 1607 -101 callgsubr
        </CharString>
        <CharString name="Tdotbelow">
          4 707 hmoveto
          -61 callgsubr
          87 -460 -101 callgsubr
        </CharString>
        <CharString name="Tecyrillic">
          14 712 49 callsubr
        </CharString>
        <CharString name="Thetagreek">
          343 1106 592 rmoveto
          50 248 rlineto
          -510 hlineto
          -50 -248 rlineto
          198 -616 rmoveto
          475 335 366 496 383 -252 246 -390 -475 -335 -367 -495 -383 252 -246 390 hvcurveto
          507 853 rmoveto
          -333 -206 -265 -286 -220 -135 147 235 333 207 266 285 220 135 -147 -236 vhcurveto
          endchar
        </CharString>
        <CharString name="Thorn">
          51 62 hmoveto
          302 hlineto
          62 290 rlineto
          315 hlineto
          343 237 226 298 231 -180 166 -249 hvcurveto
          -271 hlineto
          51 232 rlineto
          -303 hlineto
          199 -480 rmoveto
          229 hlineto
          145 76 -67 -114 -151 -117 -95 -188 hvcurveto
          -237 hlineto
          endchar
        </CharString>
        <CharString name="Tlinebelow">
          4 707 hmoveto
          -61 callgsubr
          450 -233 -80 callgsubr
        </CharString>
        <CharString name="Tsecyrillic">
          338 1415 -285 rmoveto
          63 callgsubr
          -305 48 callgsubr
        </CharString>
        <CharString name="Tshecyrillic">
          479 1127 640 rmoveto
          167 69 -103 -164 -36 hvcurveto
          -80 -373 rlineto
          304 hlineto
          80 371 rlineto
          329 70 -153 206 -318 hhcurveto
          -140 -119 -53 -65 -80 hvcurveto
          -12 hlineto
          86 397 rlineto
          422 hlineto
          54 258 rlineto
          -1148 64 callgsubr
          422 hlineto
          -253 -1185 rlineto
          304 hlineto
          103 482 rlineto
          86 67 115 72 130 hhcurveto
          endchar
        </CharString>
        <CharString name="U">
          -104 callsubr
          endchar
        </CharString>
        <CharString name="Uacute">
          -104 callsubr
          382 1581 -84 callgsubr
        </CharString>
        <CharString name="Ubreve">
          -104 callsubr
          -35 1884 -75 callgsubr
          endchar
        </CharString>
        <CharString name="Ucaron">
          -104 callsubr
          148 1571 -88 callsubr
        </CharString>
        <CharString name="Ucircumflex">
          -104 callsubr
          431 1890 -72 callgsubr
        </CharString>
        <CharString name="Ucircumflexbelow">
          -104 callsubr
          46 -141 -94 callgsubr
          216 hlineto
          endchar
        </CharString>
        <CharString name="Ucyrillic">
          -74 callsubr
          endchar
        </CharString>
        <CharString name="Udblgrave">
          -104 callsubr
          -45 1581 -42 callgsubr
          598 -307 rmoveto
          216 hlineto
          -161 307 rlineto
          -257 hlineto
          endchar
        </CharString>
        <CharString name="Udieresis">
          -104 callsubr
          92 1610 -105 callgsubr
        </CharString>
        <CharString name="Udieresisacute">
          -104 callsubr
          198 1906 -17 callsubr
          -343 -577 -37 callsubr
        </CharString>
        <CharString name="Udieresisbelow">
          -104 callsubr
          -289 -412 8 callsubr
        </CharString>
        <CharString name="Udieresiscaron">
          -104 callsubr
          220 1901 14 callsubr
        </CharString>
        <CharString name="Udieresisgrave">
          -104 callsubr
          445 1906 -18 callsubr
          -150 -325 -37 callsubr
        </CharString>
        <CharString name="Udieresismacron">
          -104 callsubr
          85 1829 -41 callsubr
        </CharString>
        <CharString name="Udotbelow">
          -104 callsubr
          -92 -436 -101 callgsubr
        </CharString>
        <CharString name="Ugrave">
          -104 callsubr
          145 1581 -42 callgsubr
          endchar
        </CharString>
        <CharString name="Uhookabove">
          -104 callsubr
          109 1811 -69 callsubr
        </CharString>
        <CharString name="Uhorn">
          428 -86 callgsubr
          endchar
        </CharString>
        <CharString name="Uhornacute">
          429 -86 callgsubr
          385 1582 -84 callgsubr
        </CharString>
        <CharString name="Uhorndotbelow">
          429 -86 callgsubr
          -114 -435 -101 callgsubr
        </CharString>
        <CharString name="Uhorngrave">
          429 -86 callgsubr
          148 1582 -42 callgsubr
          endchar
        </CharString>
        <CharString name="Uhornhookabove">
          429 -86 callgsubr
          112 1812 -69 callsubr
        </CharString>
        <CharString name="Uhorntilde">
          429 -86 callgsubr
          422 1571 rmoveto
          -103 callgsubr
          endchar
        </CharString>
        <CharString name="Uhungarumlaut">
          -104 callsubr
          591 1581 -1 callgsubr
        </CharString>
        <CharString name="Uinvertedbreve">
          -104 callsubr
          612 1563 -60 callgsubr
        </CharString>
        <CharString name="Umacron">
          -104 callsubr
          650 1794 -80 callgsubr
        </CharString>
        <CharString name="Umacrondieresis">
          -104 callsubr
          614 1624 26 callsubr
        </CharString>
        <CharString name="Uogonek">
          211 951 -440 rmoveto
          33 159 rlineto
          -6 -16 -28 -5 -30 hhcurveto
          -65 -36 28 46 89 97 90 158 90 hvcurveto
          152 87 108 133 40 187 209 985 rcurveline
          -305 hlineto
          -195 -917 rlineto
          -179 -39 -122 -100 -169 hhcurveto
          -171 -101 87 143 -4 hvcurveto
          31 3 35 8 36 vhcurveto
          183 864 rlineto
          67 callsubr
          rlineto
          -9 -43 -4 -44 -40 vvcurveto
          -271 1 211 -199 354 hhcurveto
          17 21 2 1 8 hvcurveto
          -5 vlineto
          -121 -71 -67 -91 -93 vvcurveto
          -111 92 -71 132 60 54 9 15 30 vhcurveto
          endchar
        </CharString>
        <CharString name="Upsilondieresisgreek">
          88 750 hmoveto
          -85 callgsubr
          312 1586 -105 callgsubr
        </CharString>
        <CharString name="Upsilongreek">
          88 750 hmoveto
          -85 callgsubr
          endchar
        </CharString>
        <CharString name="Upsilontonosgreek">
          619 265 4 callsubr
          869 -1443 42 callsubr
        </CharString>
        <CharString name="Uring">
          -104 callsubr
          309 1590 -91 callsubr
        </CharString>
        <CharString name="Ushortcyrillic">
          -74 callsubr
          343 1873 -76 callsubr
        </CharString>
        <CharString name="Utilde">
          -104 callsubr
          419 1570 rmoveto
          -103 callgsubr
          endchar
        </CharString>
        <CharString name="Utildeacute">
          -104 callsubr
          213 1915 rmoveto
          228 hlineto
          266 243 rlineto
          -258 hlineto
          -43 -596 -51 callsubr
          endchar
        </CharString>
        <CharString name="Utildebelow">
          -104 callsubr
          41 -431 rmoveto
          -103 callgsubr
          endchar
        </CharString>
        <CharString name="V">
          18 callgsubr
          endchar
        </CharString>
        <CharString name="Vdotbelow">
          18 callgsubr
          114 -460 -101 callgsubr
        </CharString>
        <CharString name="Vecyrillic">
          99 749 -83 callsubr
          endchar
        </CharString>
        <CharString name="Vtilde">
          18 callgsubr
          662 1546 rmoveto
          -103 callgsubr
          endchar
        </CharString>
        <CharString name="W">
          700 1106 -74 callgsubr
          endchar
        </CharString>
        <CharString name="Wacute">
          700 1106 -74 callgsubr
          721 1557 -84 callgsubr
        </CharString>
        <CharString name="Wcircumflex">
          700 1106 -74 callgsubr
          770 1866 -72 callgsubr
        </CharString>
        <CharString name="Wdieresis">
          700 1106 -74 callgsubr
          431 1586 -105 callgsubr
        </CharString>
        <CharString name="Wdotaccent">
          700 1106 -74 callgsubr
          639 1607 -101 callgsubr
        </CharString>
        <CharString name="Wdotbelow">
          700 1106 -74 callgsubr
          209 -460 -101 callgsubr
        </CharString>
        <CharString name="Wgrave">
          700 1106 -74 callgsubr
          484 1557 -42 callgsubr
          endchar
        </CharString>
        <CharString name="X">
          135 -42 29 callsubr
        </CharString>
        <CharString name="Xacyrillic">
          145 -37 29 callsubr
        </CharString>
        <CharString name="Xdieresis">
          135 -42 hmoveto
          -56 callgsubr
          187 856 -105 callgsubr
        </CharString>
        <CharString name="Xdotaccent">
          135 -42 hmoveto
          -56 callgsubr
          394 877 -101 callgsubr
        </CharString>
        <CharString name="Xigreek">
          14 323 1443 98 callgsubr
          -264 -839 rmoveto
          51 246 rlineto
          -913 hlineto
          -51 -246 rlineto
          -162 -339 98 callgsubr
          endchar
        </CharString>
        <CharString name="Y">
          88 750 hmoveto
          -85 callgsubr
          endchar
        </CharString>
        <CharString name="Yacute">
          88 750 hmoveto
          -85 callgsubr
          602 1557 -84 callgsubr
        </CharString>
        <CharString name="Ycircumflex">
          88 750 hmoveto
          -85 callgsubr
          651 1866 -72 callgsubr
        </CharString>
        <CharString name="Ydieresis">
          88 750 hmoveto
          -85 callgsubr
          312 1586 -105 callgsubr
        </CharString>
        <CharString name="Ydotaccent">
          88 750 hmoveto
          -85 callgsubr
          520 1607 -101 callgsubr
        </CharString>
        <CharString name="Ydotbelow">
          88 750 hmoveto
          -85 callgsubr
          84 -460 -101 callgsubr
        </CharString>
        <CharString name="Yericyrillic">
          -64 callgsubr
          endchar
        </CharString>
        <CharString name="Ygrave">
          88 750 hmoveto
          -85 callgsubr
          365 1557 -42 callgsubr
          endchar
        </CharString>
        <CharString name="Yhookabove">
          88 750 hmoveto
          -85 callgsubr
          329 1787 -69 callsubr
        </CharString>
        <CharString name="Yicyrillic">
          -693 358 hmoveto
          -90 callgsubr
          317 1586 -105 callgsubr
        </CharString>
        <CharString name="Yicyrillic.1">
          -241 991 1586 rmoveto
          73 57 57 70 70 -57 57 -73 -73 -56 -57 -70 -70 56 -57 73 hvcurveto
          -395 0 rmoveto
          73 57 57 70 70 -57 57 -73 -73 -56 -57 -70 -70 56 -57 73 hvcurveto
          514 -389 rmoveto
          51 246 rlineto
          -270 hlineto
          -304 hlineto
          -270 hlineto
          -51 -246 rlineto
          269 hlineto
          -203 -951 rlineto
          -271 hlineto
          -51 -246 rlineto
          270 hlineto
          304 hlineto
          270 hlineto
          51 246 rlineto
          -269 hlineto
          203 951 rlineto
          endchar
        </CharString>
        <CharString name="Ymacron">
          88 750 hmoveto
          -85 callgsubr
          870 1770 -80 callgsubr
        </CharString>
        <CharString name="Ytilde">
          88 750 hmoveto
          -85 callgsubr
          639 1546 rmoveto
          -103 callgsubr
          endchar
        </CharString>
        <CharString name="Z">
          17 10 hmoveto
          -60 callsubr
          endchar
        </CharString>
        <CharString name="Zacute">
          17 10 hmoveto
          -60 callsubr
          956 1353 -84 callgsubr
        </CharString>
        <CharString name="Zcaron">
          17 10 hmoveto
          -60 callsubr
          722 1343 -88 callsubr
        </CharString>
        <CharString name="Zcircumflex">
          17 10 hmoveto
          -60 callsubr
          1005 1662 -72 callgsubr
        </CharString>
        <CharString name="Zdotaccent">
          17 10 hmoveto
          -60 callsubr
          873 1403 -101 callgsubr
        </CharString>
        <CharString name="Zdotbelow">
          17 10 hmoveto
          -60 callsubr
          467 -664 -101 callgsubr
        </CharString>
        <CharString name="Zecyrillic">
          19 486 623 -79 callsubr
          endchar
        </CharString>
        <CharString name="Zetagreek">
          17 10 hmoveto
          -60 callsubr
          endchar
        </CharString>
        <CharString name="Zhecyrillic">
          826 953 -47 callsubr
          endchar
        </CharString>
        <CharString name="Zlinebelow">
          17 10 hmoveto
          -60 callsubr
          830 -437 -80 callgsubr
        </CharString>
        <CharString name="a">
          -107 callgsubr
          endchar
        </CharString>
        <CharString name="a.1">
          -21 589 -106 callgsubr
          endchar
        </CharString>
        <CharString name="aacute">
          -107 callgsubr
          479 1262 -78 callgsubr
          endchar
        </CharString>
        <CharString name="aacute.1">
          -21 589 -106 callgsubr
          160 1246 -78 callgsubr
          endchar
        </CharString>
        <CharString name="abreve">
          -107 callgsubr
          46 1570 -81 callsubr
          endchar
        </CharString>
        <CharString name="abreve.1">
          -21 589 -106 callgsubr
          -273 1554 -81 callsubr
          endchar
        </CharString>
        <CharString name="abreveacute">
          -107 callgsubr
          281 1603 -26 callsubr
          203 -331 -85 callsubr
          endchar
        </CharString>
        <CharString name="abreveacute.1">
          -21 589 -106 callgsubr
          -38 1587 -26 callsubr
          203 -331 -85 callsubr
          endchar
        </CharString>
        <CharString name="abrevedotbelow">
          -107 callgsubr
          46 1570 -81 callsubr
          -149 -2013 -101 callgsubr
        </CharString>
        <CharString name="abrevedotbelow.1">
          -21 589 -106 callgsubr
          -273 1554 -81 callsubr
          -213 -2014 -101 callgsubr
        </CharString>
        <CharString name="abrevegrave">
          -107 callgsubr
          514 1599 -32 callgsubr
          433 -40 -85 callsubr
          endchar
        </CharString>
        <CharString name="abrevegrave.1">
          -21 589 -106 callgsubr
          195 1583 -32 callgsubr
          433 -40 -85 callsubr
          endchar
        </CharString>
        <CharString name="abrevehookabove">
          -107 callgsubr
          234 1799 rmoveto
          10 31 32 5 34 hhcurveto
          50 31 -23 -37 -41 -43 -42 -61 -22 hvcurveto
          67 -104 rlineto
          115 40 92 108 100 vvcurveto
          95 -76 62 -118 -40 -50 -9 -12 -36 vhcurveto
          489 -370 -85 callsubr
          endchar
        </CharString>
        <CharString name="abrevehookabove.1">
          -21 589 -106 callgsubr
          -85 1783 rmoveto
          10 31 32 5 34 hhcurveto
          50 31 -23 -37 -41 -43 -42 -61 -22 hvcurveto
          67 -104 rlineto
          115 40 92 108 100 vvcurveto
          95 -76 62 -118 -40 -50 -9 -12 -36 vhcurveto
          489 -370 -85 callsubr
          endchar
        </CharString>
        <CharString name="abrevetilde">
          -107 callgsubr
          751 1559 -85 callsubr
          -187 59 -62 callgsubr
        </CharString>
        <CharString name="abrevetilde.1">
          -21 589 -106 callgsubr
          432 1543 -85 callsubr
          -187 59 -62 callgsubr
        </CharString>
        <CharString name="acaron">
          -107 callgsubr
          453 1251 -82 callgsubr
        </CharString>
        <CharString name="acaron.1">
          -21 589 -106 callgsubr
          134 1235 -82 callgsubr
        </CharString>
        <CharString name="acircumflex">
          -107 callgsubr
          515 1571 -65 callsubr
        </CharString>
        <CharString name="acircumflex.1">
          -21 589 -106 callgsubr
          196 1555 -65 callsubr
        </CharString>
        <CharString name="acircumflexacute">
          -107 callgsubr
          492 1551 -67 callgsubr
          -125 363 -26 callsubr
          endchar
        </CharString>
        <CharString name="acircumflexacute.1">
          -21 589 -106 callgsubr
          173 1535 -67 callgsubr
          -125 363 -26 callsubr
          endchar
        </CharString>
        <CharString name="acircumflexdotbelow">
          -107 callgsubr
          515 1571 -79 callgsubr
          -635 -1694 -101 callgsubr
        </CharString>
        <CharString name="acircumflexdotbelow.1">
          -21 589 -106 callgsubr
          196 1555 -79 callgsubr
          -699 -1695 -101 callgsubr
        </CharString>
        <CharString name="acircumflexgrave">
          -107 callgsubr
          828 1599 -32 callgsubr
          -140 -48 -67 callgsubr
          endchar
        </CharString>
        <CharString name="acircumflexgrave.1">
          -21 589 -106 callgsubr
          509 1583 -32 callgsubr
          -140 -48 -67 callgsubr
          endchar
        </CharString>
        <CharString name="acircumflexhookabove">
          -107 callgsubr
          519 1784 -54 callsubr
        </CharString>
        <CharString name="acircumflexhookabove.1">
          -21 589 -106 callgsubr
          200 1768 -54 callsubr
        </CharString>
        <CharString name="acircumflextilde">
          -107 callgsubr
          489 1540 rmoveto
          -225 hlineto
          -328 -300 rlineto
          237 hlineto
          185 171 rlineto
          7 hlineto
          112 -171 rlineto
          212 hlineto
          -136 378 -62 callgsubr
        </CharString>
        <CharString name="acircumflextilde.1">
          -21 589 -106 callgsubr
          170 1524 rmoveto
          -225 hlineto
          -328 -300 rlineto
          237 hlineto
          185 171 rlineto
          7 hlineto
          112 -171 rlineto
          212 hlineto
          -136 378 -62 callgsubr
        </CharString>
        <CharString name="acute">
          -184 715 1245 -78 callgsubr
          endchar
        </CharString>
        <CharString name="acutecmb">
          339 1245 -78 callgsubr
          endchar
        </CharString>
        <CharString name="acutecmb.short">
          379 1557 -84 callgsubr
        </CharString>
        <CharString name="acutedotaccentcmb">
          457 1245 -78 callgsubr
          -207 -12 -73 callsubr
        </CharString>
        <CharString name="acutedotaccentcmb.short">
          544 1560 103 callgsubr
          -283 hlineto
          -291 -307 rlineto
          -207 3 -101 callgsubr
        </CharString>
        <CharString name="acyrillic">
          -107 callgsubr
          endchar
        </CharString>
        <CharString name="acyrillic.1">
          -13 596 -106 callgsubr
          endchar
        </CharString>
        <CharString name="adblgrave">
          -107 callgsubr
          280 1262 -44 callgsubr
        </CharString>
        <CharString name="adblgrave.1">
          -21 589 -106 callgsubr
          -39 1246 -44 callgsubr
        </CharString>
        <CharString name="adieresis">
          -107 callgsubr
          163 1254 -105 callgsubr
        </CharString>
        <CharString name="adieresis.1">
          -21 589 -106 callgsubr
          -156 1238 -105 callgsubr
        </CharString>
        <CharString name="adieresismacron">
          -107 callgsubr
          154 1239 -50 callsubr
        </CharString>
        <CharString name="adieresismacron.1">
          -21 589 -106 callgsubr
          -165 1223 -50 callsubr
        </CharString>
        <CharString name="adotaccent">
          -107 callgsubr
          358 1256 -73 callsubr
        </CharString>
        <CharString name="adotaccent.1">
          -21 589 -106 callgsubr
          39 1240 -73 callsubr
        </CharString>
        <CharString name="adotbelow">
          -107 callgsubr
          76 -443 -101 callgsubr
        </CharString>
        <CharString name="adotbelow.1">
          -21 589 -106 callgsubr
          -307 -460 -101 callgsubr
        </CharString>
        <CharString name="adotmacron">
          -107 callgsubr
          354 1227 -7 callsubr
        </CharString>
        <CharString name="adotmacron.1">
          -21 589 -106 callgsubr
          35 1211 -7 callsubr
        </CharString>
        <CharString name="ae">
          553 1234 -89 callgsubr
          endchar
        </CharString>
        <CharString name="aeacute">
          553 1234 -89 callgsubr
          722 1052 -78 callgsubr
          endchar
        </CharString>
        <CharString name="aemacron">
          553 1234 -89 callgsubr
          942 1237 -77 callgsubr
        </CharString>
        <CharString name="agrave">
          -107 callgsubr
          436 1262 -39 callsubr
        </CharString>
        <CharString name="agrave.1">
          -21 589 -106 callgsubr
          117 1246 -39 callsubr
        </CharString>
        <CharString name="ahookabove">
          -107 callgsubr
          210 1497 -71 callgsubr
        </CharString>
        <CharString name="ahookabove.1">
          -21 589 -106 callgsubr
          -109 1481 -71 callgsubr
        </CharString>
        <CharString name="ainvertedbreve">
          -107 callgsubr
          680 1236 -59 callsubr
        </CharString>
        <CharString name="ainvertedbreve.1">
          -21 589 -106 callgsubr
          361 1220 -59 callsubr
        </CharString>
        <CharString name="alphagreek">
          -22 callgsubr
          endchar
        </CharString>
        <CharString name="alphatonosgreek">
          -22 callgsubr
          50 1020 11 callgsubr
        </CharString>
        <CharString name="amacron">
          -107 callgsubr
          699 1447 -77 callgsubr
        </CharString>
        <CharString name="amacron.1">
          -21 589 -106 callgsubr
          380 1431 -77 callgsubr
        </CharString>
        <CharString name="ampersand">
          194 625 1089 rmoveto
          96 80 78 99 87 61 -51 -79 -94 -68 -85 -168 -57 vhcurveto
          -65 84 -26 54 54 vvcurveto
          -30 -900 rmoveto
          -159 -103 86 117 100 74 84 140 52 hvcurveto
          4 1 36 13 7 2 262 -387 rcurveline
          -48 -80 -97 -20 -84 hhcurveto
          427 -189 rmoveto
          304 hlineto
          -155 232 127 134 82 167 18 191 rlinecurve
          3 38 rlineto
          -244 hlineto
          -3 -33 -8 -114 -40 -99 -65 -85 rlinecurve
          -218 311 rlineto
          260 99 119 147 171 vvcurveto
          176 -171 130 -229 -245 -184 -154 -199 -89 35 -89 81 -116 vhcurveto
          -72 -29 rlineto
          -238 -93 -119 -144 -185 vvcurveto
          -227 220 -168 291 145 140 37 67 115 vhcurveto
          endchar
        </CharString>
        <CharString name="anoteleia">
          -685 364 577 rmoveto
          0 callsubr
          endchar
        </CharString>
        <CharString name="aogonek">
          -155 489 201 rmoveto
          -96 -64 47 70 81 75 54 121 4 hvcurveto
          230 9 -21 -91 rlineto
          -103 -22 -101 -71 -122 hhcurveto
          322 -631 86 callsubr
          74 110 89 131 41 hvcurveto
          24 7 146 689 rlineto
          5 22 3 34 33 vvcurveto
          187 -175 128 -258 -256 -191 -134 -211 -37 vhcurveto
          269 hlineto
          77 21 71 43 102 hhcurveto
          107 67 -46 -73 -16 -1 -9 -3 -15 hvcurveto
          -14 -65 -274 -10 rlineto
          -295 -10 -172 -132 -216 vvcurveto
          -167 139 -124 183 136 110 54 88 63 vhcurveto
          5 hlineto
          -28 -134 rlineto
          -132 -73 -82 -87 -110 91 callgsubr
        </CharString>
        <CharString name="aogonek.1">
          -21 589 218 rmoveto
          -126 -79 94 146 222 126 172 167 52 callgsubr
          -141 -220 -130 -178 -169 hvcurveto
          344 -648 86 callsubr
          72 106 90 135 42 hvcurveto
          24 7 228 1073 rlineto
          -278 hlineto
          -42 -198 rlineto
          -12 hlineto
          129 -37 -126 86 -163 hhcurveto
          -307 -229 -290 -383 -266 146 -170 233 135 121 68 113 73 hvcurveto
          11 hlineto
          -37 -174 rlineto
          -127 -71 -80 -87 -107 91 callgsubr
        </CharString>
        <CharString name="approxequal">
          71 954 612 -13 callsubr
        </CharString>
        <CharString name="approxequal.uc">
          71 981 757 -13 callsubr
        </CharString>
        <CharString name="aring">
          -107 callgsubr
          368 1215 -91 callsubr
        </CharString>
        <CharString name="aring.1">
          -21 589 -106 callgsubr
          49 1199 -91 callsubr
        </CharString>
        <CharString name="aringacute">
          -107 callgsubr
          320 1714 -30 callsubr
        </CharString>
        <CharString name="aringacute.1">
          -21 589 -106 callgsubr
          1 1698 -30 callsubr
        </CharString>
        <CharString name="aringbelow">
          -107 callgsubr
          81 -507 -91 callsubr
        </CharString>
        <CharString name="aringbelow.1">
          -21 589 -106 callgsubr
          -302 -524 -91 callsubr
        </CharString>
        <CharString name="asciicircum">
          -264 582 1183 rmoveto
          17 hlineto
          98 -372 rlineto
          249 hlineto
          -183 609 rlineto
          -260 hlineto
          -446 -609 rlineto
          259 hlineto
          endchar
        </CharString>
        <CharString name="asciitilde">
          71 924 448 rmoveto
          182 127 142 275 41 hvcurveto
          -229 hlineto
          -108 -21 -47 -52 -64 -114 -51 202 -207 hhcurveto
          -176 -136 -141 -275 -41 hvcurveto
          229 hlineto
          108 21 45 51 65 119 49 -202 208 hhcurveto
          endchar
        </CharString>
        <CharString name="asterisk">
          -277 905 807 rmoveto
          110 148 -238 143 284 92 -65 174 -255 -134 73 272 -185 20 -26 -287 -205 187 -110 -150 231 -142 -277 -89 64 -172 258 135 -74 -275 183 -20 25 287 rlineto
          endchar
        </CharString>
        <CharString name="asterisk.uc">
          71 1128 255 rmoveto
          158 207 -366 226 435 143 -87 238 -408 -205 110 438 -248 27 -44 -454 -329 288 -159 -207 364 -226 -428 -138 86 -241 411 210 -111 -441 248 -27 45 443 rlineto
          endchar
        </CharString>
        <CharString name="at">
          568 1056 1444 -35 callsubr
        </CharString>
        <CharString name="at.uc">
          568 1081 1563 -35 callsubr
        </CharString>
        <CharString name="atilde">
          -107 callgsubr
          487 1255 rmoveto
          -103 callgsubr
          endchar
        </CharString>
        <CharString name="atilde.1">
          -21 589 -106 callgsubr
          168 1238 rmoveto
          -103 callgsubr
          endchar
        </CharString>
        <CharString name="austral">
          71 935 hmoveto
          303 hlineto
          -39 349 rlineto
          82 hlineto
          34 160 rlineto
          -132 hlineto
          -17 148 rlineto
          180 hlineto
          35 160 rlineto
          -231 hlineto
          -64 626 rlineto
          -353 hlineto
          -337 -626 68 callsubr
          -35 -160 rlineto
          212 hlineto
          -82 -148 rlineto
          -161 hlineto
          93 callgsubr
          110 hlineto
          -194 -349 rlineto
          306 hlineto
          182 349 rlineto
          470 hlineto
          -72 783 rmoveto
          19 hlineto
          23 -317 rlineto
          -206 hlineto
          227 -306 rmoveto
          -382 hlineto
          78 150 rlineto
          292 hlineto
          endchar
        </CharString>
        <CharString name="b">
          -24 -53 callgsubr
          endchar
        </CharString>
        <CharString name="backslash">
          -520 307 -311 92 callsubr
        </CharString>
        <CharString name="backslash.uc">
          -520 340 -155 92 callsubr
        </CharString>
        <CharString name="baht">
          71 864 1214 rmoveto
          93 -16 48 -51 -82 vvcurveto
          -111 -83 -82 -134 -18 vhcurveto
          -44 -208 rmoveto
          124 -9 66 -62 -103 vvcurveto
          -136 -115 -96 -162 -3 vhcurveto
          -279 0 rmoveto
          89 410 rlineto
          137 hlineto
          -87 -410 rlineto
          73 982 rmoveto
          136 hlineto
          -79 -368 rlineto
          -137 hlineto
          465 -88 rmoveto
          190 26 136 153 190 vvcurveto
          182 -153 124 -235 5 vhcurveto
          31 145 rlineto
          -140 hlineto
          -31 -145 rlineto
          -434 hlineto
          -307 -1443 rlineto
          434 hlineto
          -29 -138 rlineto
          140 hlineto
          29 138 rlineto
          87 hlineto
          315 223 190 266 149 -104 109 -154 30 hvcurveto
          endchar
        </CharString>
        <CharString name="bar">
          -520 363 -311 77 callsubr
        </CharString>
        <CharString name="bar.uc">
          -520 396 -155 77 callsubr
        </CharString>
        <CharString name="bdotaccent">
          -23 -53 callgsubr
          -89 1383 -101 callgsubr
        </CharString>
        <CharString name="bdotbelow">
          -23 -53 callgsubr
          -183 -681 -101 callgsubr
        </CharString>
        <CharString name="becyrillic">
          -51 773 1049 rmoveto
          -151 -113 -60 -130 -92 hvcurveto
          -15 hlineto
          71 227 129 106 220 13 rrcurveto
          11 134 7 1 1 hvcurveto
          148 8 79 12 48 22 53 240 rcurveline
          -48 -19 -94 -15 -153 -10 rrcurveto
          -1 -133 -9 -9 hhcurveto
          -355 -23 -215 -169 -116 -343 -38 -112 -21 -126 -3 -131 rrcurveto
          -345 -6 186 -215 301 hhcurveto
          349 226 246 382 6 hvcurveto
          270 5 -155 173 -249 hhcurveto
          -166 -837 rmoveto
          -132 -85 104 150 3 hvcurveto
          211 3 120 150 169 hhcurveto
          129 76 -99 -161 -2 hvcurveto
          -194 -3 -126 -161 -152 hhcurveto
          endchar
        </CharString>
        <CharString name="betagreek">
          -13 225 964 rmoveto
          -281 -1315 54 callgsubr
          119 557 rlineto
          7 hlineto
          -140 53 133 -83 163 hhcurveto
          317 186 209 265 162 -81 113 -171 43 hvcurveto
          1 5 rlineto
          162 49 87 120 163 vvcurveto
          216 -172 139 -261 -311 -162 -152 -351 -73 vhcurveto
          344 -308 rmoveto
          95 hlineto
          161 93 -70 -129 -137 -118 -98 -143 -152 -103 88 133 22 4 35 9 37 hvcurveto
          99 458 rlineto
          168 36 89 71 114 hhcurveto
          114 69 -60 -95 -132 -94 -72 -144 hvcurveto
          -84 hlineto
          endchar
        </CharString>
        <CharString name="bitcoin">
          71 544 846 rmoveto
          77 353 rlineto
          171 hlineto
          130 68 -52 -96 -120 -102 -85 -158 hvcurveto
          -313 -590 rmoveto
          86 394 rlineto
          204 hlineto
          140 75 -60 -108 -132 -114 -94 -160 hvcurveto
          313 505 rmoveto
          183 25 131 147 182 vvcurveto
          150 -109 108 -172 32 vhcurveto
          45 210 rlineto
          -142 hlineto
          -42 -201 rlineto
          -143 hlineto
          42 201 rlineto
          -142 hlineto
          -43 -201 rlineto
          -184 hlineto
          -295 -1385 rlineto
          185 hlineto
          -44 -206 rlineto
          142 hlineto
          44 206 rlineto
          143 hlineto
          -43 -206 rlineto
          141 hlineto
          44 206 rlineto
          297 5 208 180 253 vvcurveto
          143 -100 104 -148 29 vhcurveto
          endchar
        </CharString>
        <CharString name="blinebelow">
          -23 -53 callgsubr
          180 -454 -80 callgsubr
        </CharString>
        <CharString name="braceleft">
          -520 199 220 -20 callgsubr
        </CharString>
        <CharString name="braceleft.uc">
          -520 232 375 -20 callgsubr
        </CharString>
        <CharString name="braceright">
          -520 628 911 -20 callsubr
        </CharString>
        <CharString name="braceright.uc">
          -520 662 1066 -20 callsubr
        </CharString>
        <CharString name="bracketleft">
          -520 403 1443 53 callgsubr
        </CharString>
        <CharString name="bracketleft.uc">
          -520 437 1598 53 callgsubr
        </CharString>
        <CharString name="bracketright">
          -520 423 -311 53 callsubr
        </CharString>
        <CharString name="bracketright.uc">
          -520 457 -156 53 callsubr
        </CharString>
        <CharString name="breve">
          -183 432 1553 -81 callsubr
          endchar
        </CharString>
        <CharString name="breveacutecmb">
          143 1597 -26 callsubr
          203 -331 -85 callsubr
          endchar
        </CharString>
        <CharString name="breveacutecmb.short">
          192 1882 -17 callsubr
          -175 -595 -45 callgsubr
        </CharString>
        <CharString name="brevebelowcmb">
          -465 -148 -2 callsubr
        </CharString>
        <CharString name="brevecmb">
          -94 1553 -81 callsubr
          endchar
        </CharString>
        <CharString name="brevecmb.short">
          -38 1860 -75 callgsubr
          endchar
        </CharString>
        <CharString name="brevecyrillic">
          -245 400 1569 -84 callsubr
        </CharString>
        <CharString name="brevecyrillic.short">
          -48 1860 -76 callsubr
        </CharString>
        <CharString name="brevegravecmb">
          376 1593 -32 callgsubr
          433 -40 -85 callsubr
          endchar
        </CharString>
        <CharString name="brevegravecmb.short">
          436 1882 20 callgsubr
        </CharString>
        <CharString name="brevehookabovecmb">
          96 1793 rmoveto
          10 31 32 5 34 hhcurveto
          50 31 -23 -37 -41 -43 -42 -61 -22 hvcurveto
          67 -104 rlineto
          115 40 92 108 100 vvcurveto
          95 -76 62 -118 -40 -50 -9 -12 -36 vhcurveto
          489 -370 -85 callsubr
          endchar
        </CharString>
        <CharString name="brevehookabovecmb.short">
          140 2040 rmoveto
          7 23 32 5 34 hhcurveto
          57 34 -23 -38 -40 -40 -33 -59 -15 hvcurveto
          73 -98 rlineto
          115 33 81 87 98 vvcurveto
          95 -84 65 -125 -34 -44 -5 -10 -33 vhcurveto
          85 -629 -45 callgsubr
        </CharString>
        <CharString name="brevetildecmb">
          613 1553 -85 callsubr
          -187 59 -62 callgsubr
        </CharString>
        <CharString name="brevetildecmb.short">
          475 1877 rmoveto
          125 105 102 160 30 hvcurveto
          -159 hlineto
          -70 -15 -35 -37 -43 -77 -37 123 -135 hhcurveto
          -128 -102 -97 -162 -31 hvcurveto
          160 hlineto
          66 12 37 38 43 76 38 -123 136 hhcurveto
          -220 -338 -45 callgsubr
        </CharString>
        <CharString name="brokenbar">
          -520 591 763 49 callgsubr
        </CharString>
        <CharString name="brokenbar.uc">
          -520 625 919 49 callgsubr
        </CharString>
        <CharString name="bullet">
          -277 535 205 16 callgsubr
        </CharString>
        <CharString name="bullet.uc">
          -277 569 360 16 callgsubr
        </CharString>
        <CharString name="c">
          -140 677 1099 -91 callgsubr
          endchar
        </CharString>
        <CharString name="cacute">
          -139 677 1099 -91 callgsubr
          196 147 -78 callgsubr
          endchar
        </CharString>
        <CharString name="caron">
          -184 834 1234 -82 callgsubr
        </CharString>
        <CharString name="caroncmb">
          313 1234 -82 callgsubr
        </CharString>
        <CharString name="caroncmb.short">
          145 1547 -88 callsubr
        </CharString>
        <CharString name="carondotaccentcmb">
          87 1234 10 callgsubr
          417 114 rmoveto
          88 64 66 84 85 -64 67 -88 -88 -64 -67 -85 -84 64 -66 88 hvcurveto
          endchar
        </CharString>
        <CharString name="carondotaccentcmb.short">
          139 1538 32 callgsubr
        </CharString>
        <CharString name="caronslovak">
          -244 615 28 callsubr
          endchar
        </CharString>
        <CharString name="ccaron">
          -139 677 1099 -91 callgsubr
          170 136 -82 callgsubr
        </CharString>
        <CharString name="ccedilla">
          -139 1132 677 rmoveto
          5 0 2 26 vvcurveto
          213 -175 176 -280 -350 -230 -267 -390 -245 136 -175 236 -38 vhcurveto
          -69 -103 -22 -101 rlineto
          58 hlineto
          96 37 -15 -36 -37 -42 -20 -76 -45 -46 7 11 -34 hvcurveto
          -29 -140 rlineto
          -12 34 64 -9 59 hhcurveto
          169 118 91 128 89 -59 53 -104 5 hvcurveto
          57 85 230 26 176 163 38 222 rlinecurve
          -275 hlineto
          -106 -32 -82 -66 -111 hhcurveto
          -118 -77 90 145 237 116 166 166 119 71 -77 -103 2 hvcurveto
          endchar
        </CharString>
        <CharString name="ccedillaacute">
          -139 1195 1557 rmoveto
          -272 hlineto
          -287 -311 rlineto
          237 hlineto
          -473 -1365 rmoveto
          -22 -101 rlineto
          58 hlineto
          96 37 -15 -36 -37 -42 -20 -76 -45 -46 7 11 -34 hvcurveto
          -29 -140 rlineto
          -12 34 64 -9 59 hhcurveto
          169 118 91 128 89 -59 53 -104 5 hvcurveto
          57 85 230 26 176 163 38 222 rlinecurve
          -275 hlineto
          -106 -32 -82 -66 -111 hhcurveto
          -118 -77 90 145 237 116 166 166 119 71 -77 -103 2 hvcurveto
          274 hlineto
          5 0 2 26 vvcurveto
          213 -175 176 -280 -350 -230 -267 -390 -245 136 -175 236 -38 vhcurveto
          endchar
        </CharString>
        <CharString name="ccircumflex">
          -139 677 1099 -91 callgsubr
          232 456 -65 callsubr
        </CharString>
        <CharString name="cdotaccent">
          -139 677 1099 -91 callgsubr
          75 141 -73 callsubr
        </CharString>
        <CharString name="cedi">
          71 392 590 rmoveto
          326 177 264 218 26 vhcurveto
          3 1 0 3 hhcurveto
          -208 -958 rlineto
          -125 45 -69 124 173 vvcurveto
          945 -130 rmoveto
          -298 hlineto
          -42 -123 -107 -92 -141 -14 rrcurveto
          -2 -3 0 1 -1 hvcurveto
          209 964 115 -34 68 -92 6 -124 rlinecurve
          -8 0 -4 -2 vvcurveto
          294 hlineto
          2 15 0 14 14 vvcurveto
          236 -177 200 -253 55 vhcurveto
          26 122 rlineto
          -161 hlineto
          -22 -107 rlineto
          -4 -2 0 -3 hhcurveto
          -431 -7 -327 -376 -526 vvcurveto
          -316 171 -226 275 -57 vhcurveto
          -23 -111 rlineto
          160 hlineto
          21 96 rlineto
          1 2 0 2 hhcurveto
          331 6 254 202 60 294 rrcurveto
          endchar
        </CharString>
        <CharString name="cedilla">
          -173 262 -220 -92 callgsubr
        </CharString>
        <CharString name="cedillacmb">
          -265 -220 -92 callgsubr
        </CharString>
        <CharString name="cent">
          71 1218 525 rmoveto
          -278 hlineto
          -101 -34 -82 -55 -109 hhcurveto
          -116 -92 81 167 239 122 188 177 110 83 -62 -103 6 hvcurveto
          276 hlineto
          15 -1 15 -1 13 vhcurveto
          -13 142 -102 136 -167 57 41 192 rcurveline
          -243 hlineto
          -35 -169 rlineto
          -326 -35 -218 -283 -367 vvcurveto
          -219 117 -160 188 -60 vhcurveto
          -44 -208 rlineto
          243 hlineto
          38 183 256 23 169 165 35 206 rlinecurve
          endchar
        </CharString>
        <CharString name="checyrillic">
          -21 callgsubr
          endchar
        </CharString>
        <CharString name="chigreek">
          -114 854 -343 rmoveto
          60 50 7 9 31 hvcurveto
          44 213 rlineto
          -4 -14 -25 -3 -16 hhcurveto
          -73 -33 24 102 -34 hvcurveto
          -112 339 553 732 71 callgsubr
          -344 -474 rlineto
          -10 hlineto
          -96 301 rlineto
          131 -42 -70 51 -131 hhcurveto
          -45 -54 -6 -10 -35 hvcurveto
          -44 -213 rlineto
          4 15 27 4 16 hhcurveto
          66 27 -30 -91 32 hvcurveto
          127 -371 -540 -709 54 callgsubr
          324 448 rlineto
          12 hlineto
          92 -282 rlineto
          -120 40 69 -52 134 hhcurveto
          endchar
        </CharString>
        <CharString name="circumflex">
          -184 902 1554 -65 callsubr
        </CharString>
        <CharString name="circumflexacutecmb">
          354 1545 -67 callgsubr
          -125 363 -26 callsubr
          endchar
        </CharString>
        <CharString name="circumflexacutecmb.short">
          19 callgsubr
          11 60 -17 callsubr
          endchar
        </CharString>
        <CharString name="circumflexbelowcmb">
          -4 -165 -94 callgsubr
          216 hlineto
          endchar
        </CharString>
        <CharString name="circumflexcmb">
          375 1554 -65 callsubr
        </CharString>
        <CharString name="circumflexcmb.short">
          428 1866 -72 callgsubr
        </CharString>
        <CharString name="circumflexgravecmb">
          690 1593 -32 callgsubr
          -140 -48 -67 callgsubr
          endchar
        </CharString>
        <CharString name="circumflexgravecmb.short">
          19 callgsubr
          255 60 -18 callsubr
          endchar
        </CharString>
        <CharString name="circumflexhookabovecmb">
          381 1778 -54 callsubr
        </CharString>
        <CharString name="circumflexhookabovecmb.short">
          19 callgsubr
          17 166 rmoveto
          10 30 33 5 32 hhcurveto
          56 36 -25 -38 -47 -41 -38 -58 -18 hvcurveto
          70 -105 rlineto
          122 44 84 92 112 vvcurveto
          98 -81 62 -127 -43 -53 -8 -13 -30 vhcurveto
          endchar
        </CharString>
        <CharString name="circumflextildecmb">
          351 1534 rmoveto
          -225 hlineto
          -328 -300 rlineto
          237 hlineto
          185 171 rlineto
          7 hlineto
          112 -171 rlineto
          212 hlineto
          -136 378 -62 callgsubr
        </CharString>
        <CharString name="circumflextildecmb.short">
          471 1877 -45 callsubr
        </CharString>
        <CharString name="colon">
          -685 72 callgsubr
          153 715 34 callgsubr
          endchar
        </CharString>
        <CharString name="colon.uc">
          -685 287 199 rmoveto
          0 callsubr
          153 715 34 callgsubr
          endchar
        </CharString>
        <CharString name="coloncurrency">
          71 1009 1213 rmoveto
          1 1 0 1 hhcurveto
          47 58 -5 -8 52 hvcurveto
          -481 -909 -48 21 -42 27 -34 33 rlinecurve
          -95 147 rmoveto
          -15 45 -8 49 55 vvcurveto
          244 143 203 233 71 vhcurveto
          726 406 rmoveto
          -172 hlineto
          -78 -148 -43 10 -55 9 -56 7 rlinecurve
          65 122 rlineto
          -172 hlineto
          -60 -113 rlineto
          -527 -12 -317 -388 -447 vvcurveto
          -169 62 -146 109 -111 vhcurveto
          -192 -363 rlineto
          172 hlineto
          141 266 40 -26 44 -22 47 -19 rlinecurve
          -105 -199 rlineto
          172 hlineto
          82 155 rlineto
          -16 76 81 -9 87 hhcurveto
          46 77 8 6 23 hvcurveto
          55 260 rlineto
          -6 -32 -63 -8 -45 hhcurveto
          -62 -58 5 9 -53 hvcurveto
          endchar
        </CharString>
        <CharString name="comma">
          -686 178 -318 rmoveto
          34 callsubr
        </CharString>
        <CharString name="commaaccent">
          -184 386 -475 -43 callsubr
        </CharString>
        <CharString name="commabelowcmb">
          -233 -475 -43 callsubr
        </CharString>
        <CharString name="copyright">
          412 887 -133 rmoveto
          446 353 358 452 443 -325 318 -454 -446 -353 -359 -452 -442 325 -318 454 hvcurveto
          160 vmoveto
          -362 -253 249 352 361 281 289 354 362 253 -249 -352 -361 -282 -289 -353 hvcurveto
          379 730 rmoveto
          170 6 -135 125 -193 hhcurveto
          -236 -173 -193 -262 -200 139 -139 199 177 129 95 162 40 hvcurveto
          -192 hlineto
          -65 -29 -47 -30 -70 hhcurveto
          -95 -60 67 110 166 91 128 120 82 58 -53 -81 2 hvcurveto
          endchar
        </CharString>
        <CharString name="cruzeiro">
          71 1116 -11 rmoveto
          54 258 rlineto
          -8 -41 -60 -6 -38 hhcurveto
          -42 -41 3 4 -37 hvcurveto
          42 190 rlineto
          164 35 76 74 131 hhcurveto
          46 51 -11 -17 26 hvcurveto
          56 256 rlineto
          12 -21 -38 5 -36 hhcurveto
          -112 -93 -63 -105 -51 hvcurveto
          -10 hlineto
          31 152 rlineto
          -225 hlineto
          -127 -588 rlineto
          -143 70 -83 123 165 vvcurveto
          313 239 230 332 100 132 -20 -24 53 vhcurveto
          54 257 rlineto
          29 -74 -156 24 -120 hhcurveto
          -512 -360 -340 -478 -405 318 -280 452 83 83 9 7 26 hvcurveto
          endchar
        </CharString>
        <CharString name="currency">
          71 493 648 rmoveto
          127 106 106 128 128 107 -106 -127 -126 -107 -106 -128 -128 -106 106 126 vhcurveto
          854 372 rmoveto
          -132 174 -218 -181 rlineto
          58 -75 -94 34 -101 hhcurveto
          -59 -57 -12 -21 -52 hvcurveto
          -103 131 -198 -169 100 -125 rlineto
          -51 -74 -30 -90 -97 vvcurveto
          -69 15 -66 28 -59 vhcurveto
          -214 -178 133 -174 218 181 rlineto
          -57 75 94 -34 101 hhcurveto
          59 57 12 21 52 hvcurveto
          102 -131 199 169 -99 125 rlineto
          51 74 30 90 96 vvcurveto
          70 -16 66 -27 59 vhcurveto
          endchar
        </CharString>
        <CharString name="cyrilliccentraldescender">
          -575 399 56 callgsubr
          endchar
        </CharString>
        <CharString name="cyrilliccentraldescendercap">
          -575 400 56 callsubr
          endchar
        </CharString>
        <CharString name="cyrillicdescender">
          -244 335 45 callgsubr
          endchar
        </CharString>
        <CharString name="cyrillicdescender.short">
          -244 303 74 callgsubr
          endchar
        </CharString>
        <CharString name="cyrillicdescendercap">
          -244 339 -285 rmoveto
          273 hlineto
          114 2 callsubr
          endchar
        </CharString>
        <CharString name="cyrillicdescendercap.short">
          -244 285 -285 rmoveto
          273 hlineto
          106 callsubr
          -377 hlineto
          -53 -258 rlineto
          104 hlineto
          endchar
        </CharString>
        <CharString name="cyrillichook">
          -244 132 12 callsubr
          endchar
        </CharString>
        <CharString name="cyrillichookcap">
          -244 114 29 callgsubr
          53 hvcurveto
          5 24 -304 25 -4 -19 rlineto
          -107 -23 -42 -35 -95 88 callsubr
          endchar
        </CharString>
        <CharString name="cyrillictail">
          -244 235 -261 rmoveto
          260 hlineto
          209 437 13 62 rlineto
          -465 82 callsubr
          159 hlineto
          endchar
        </CharString>
        <CharString name="cyrillictailcap">
          -244 225 40 callsubr
          endchar
        </CharString>
        <CharString name="d">
          -18 471 -17 -6 callgsubr
        </CharString>
        <CharString name="dagger">
          -277 713 1066 rmoveto
          240 hlineto
          49 236 rlineto
          -241 hlineto
          57 266 rlineto
          -240 hlineto
          -57 -266 rlineto
          -240 hlineto
          -49 -236 rlineto
          241 hlineto
          -110 -514 rlineto
          240 hlineto
          endchar
        </CharString>
        <CharString name="daggerdbl">
          -277 887 755 rmoveto
          43 212 rlineto
          -241 hlineto
          20 93 20 92 rlineto
          242 hlineto
          44 213 rlineto
          -241 hlineto
          44 203 rlineto
          -240 hlineto
          -44 -203 rlineto
          -240 hlineto
          -44 -213 rlineto
          241 hlineto
          -20 -92 -20 -93 rlineto
          -242 hlineto
          -43 -212 rlineto
          240 hlineto
          -43 -203 rlineto
          240 hlineto
          43 203 rlineto
          endchar
        </CharString>
        <CharString name="dblgrave">
          -184 771 1245 -44 callgsubr
        </CharString>
        <CharString name="dblgravecmb">
          140 1245 -44 callgsubr
        </CharString>
        <CharString name="dblgravecmb.short">
          -48 1557 -42 callgsubr
          598 -307 rmoveto
          216 hlineto
          -161 307 rlineto
          -257 hlineto
          endchar
        </CharString>
        <CharString name="dcaron">
          251 1491 28 callsubr
          -1266 -1460 -6 callgsubr
        </CharString>
        <CharString name="dcircumflexbelow">
          -18 471 -17 -97 callsubr
          101 -383 -94 callgsubr
          216 hlineto
          endchar
        </CharString>
        <CharString name="dcommaaccent">
          -18 471 -17 -97 callsubr
          -128 -693 -43 callsubr
        </CharString>
        <CharString name="dcroat">
          -18 589 218 rmoveto
          -125 -78 93 145 227 128 169 165 128 83 -95 -138 -223 -132 -178 -169 hvcurveto
          860 1131 rmoveto
          -103 hlineto
          20 94 rlineto
          -285 hlineto
          -20 -94 rlineto
          -233 hlineto
          -35 -168 rlineto
          231 hlineto
          -65 -299 rlineto
          -6 hlineto
          124 -35 -125 86 -163 hhcurveto
          -305 -231 -289 -388 -264 145 -168 232 142 121 67 110 72 hvcurveto
          6 hlineto
          -34 -160 rlineto
          281 hlineto
          251 1181 rlineto
          104 hlineto
          endchar
        </CharString>
        <CharString name="ddotaccent">
          -18 471 -17 -97 callsubr
          705 1389 -101 callgsubr
        </CharString>
        <CharString name="ddotbelow">
          -18 471 -17 -97 callsubr
          -37 -678 -101 callgsubr
        </CharString>
        <CharString name="decyrillic">
          -2 callgsubr
        </CharString>
        <CharString name="decyrillic.1">
          -41 600 212 rmoveto
          -132 -86 106 157 3 hvcurveto
          212 3 118 152 164 hhcurveto
          132 82 -100 -154 -2 hvcurveto
          -210 -3 -121 -163 -158 hhcurveto
          27 839 rmoveto
          -312 -210 -231 -340 -300 194 -202 295 362 226 287 514 10 hvcurveto
          455 10 -206 262 -380 hhcurveto
          -116 -96 -25 -12 -36 hvcurveto
          -49 -243 rlineto
          27 61 96 18 91 hhcurveto
          211 140 -131 -212 13 hvcurveto
          -15 hlineto
          87 -66 -98 46 -125 hhcurveto
          endchar
        </CharString>
        <CharString name="degree">
          -495 547 814 rmoveto
          180 139 140 182 181 -139 140 -180 -180 -138 -140 -181 -182 139 -140 179 hvcurveto
          1 176 rmoveto
          -78 -67 67 79 80 67 65 78 81 63 -65 -80 -79 -63 -67 -81 hvcurveto
          endchar
        </CharString>
        <CharString name="deltagreek">
          -89 549 -24 rmoveto
          373 225 257 308 203 -92 118 -254 163 hvcurveto
          -99 57 -24 28 41 vvcurveto
          59 46 35 96 112 111 -32 -58 105 vhcurveto
          53 208 rlineto
          61 -83 -157 40 -160 hhcurveto
          -260 -161 -116 -182 -91 49 -78 100 -56 hvcurveto
          -1 -3 rlineto
          -2 vlineto
          -284 -46 -175 -194 -286 vvcurveto
          -264 193 -170 287 vhcurveto
          15 214 rmoveto
          -121 -83 88 140 222 127 135 162 122 77 -86 -138 -219 -119 -142 -165 hvcurveto
          endchar
        </CharString>
        <CharString name="dieresis">
          -184 555 1237 -105 callgsubr
        </CharString>
        <CharString name="dieresisacutecmb">
          141 1597 -26 callsubr
          -385 -652 -105 callgsubr
        </CharString>
        <CharString name="dieresisacutecmb.short">
          195 1882 -17 callsubr
          -343 -577 -37 callsubr
        </CharString>
        <CharString name="dieresisbelowcmb">
          -339 -436 8 callsubr
        </CharString>
        <CharString name="dieresiscaroncmb">
          16 1233 rmoveto
          44 callgsubr
          -74 -56 -57 -70 -71 56 -56 74 hvcurveto
          395 hmoveto
          44 callgsubr
          -73 -57 -57 -70 -71 57 -56 73 hvcurveto
          -282 332 10 callgsubr
          endchar
        </CharString>
        <CharString name="dieresiscaroncmb.short">
          217 1877 14 callsubr
        </CharString>
        <CharString name="dieresiscmb">
          23 1237 -105 callgsubr
        </CharString>
        <CharString name="dieresiscmb.short">
          89 1586 -105 callgsubr
        </CharString>
        <CharString name="dieresisgravecmb">
          375 1593 -32 callgsubr
          -156 -361 -105 callgsubr
        </CharString>
        <CharString name="dieresisgravecmb.short">
          442 1882 -18 callsubr
          -150 -325 -37 callsubr
        </CharString>
        <CharString name="dieresismacroncmb">
          16 1233 -50 callsubr
        </CharString>
        <CharString name="dieresismacroncmb.short">
          82 1805 -41 callsubr
        </CharString>
        <CharString name="dieresistonosgreek">
          193 955 1237 -48 callgsubr
        </CharString>
        <CharString name="divide">
          71 1228 467 23 callsubr
        </CharString>
        <CharString name="divide.uc">
          71 1255 609 23 callsubr
        </CharString>
        <CharString name="djecyrillic">
          -44 505 911 rmoveto
          61 281 rlineto
          217 hlineto
          32 150 rlineto
          -217 hlineto
          23 106 rlineto
          -285 hlineto
          -22 -106 rlineto
          -142 hlineto
          -31 -150 rlineto
          141 hlineto
          -253 -1192 rlineto
          284 hlineto
          137 642 rlineto
          129 28 105 89 125 hhcurveto
          112 76 -67 -99 -25 -4 -28 -6 -30 hvcurveto
          -142 -653 rlineto
          -76 -16 -49 -39 -81 hhcurveto
          -8 -36 0 1 -6 hvcurveto
          -49 -225 rlineto
          -2 28 53 -1 33 hhcurveto
          227 138 109 215 46 hvcurveto
          155 718 rlineto
          9 44 5 44 41 vvcurveto
          180 -138 128 -196 -144 -127 -70 -114 -77 vhcurveto
          endchar
        </CharString>
        <CharString name="dlinebelow">
          -18 471 -17 -97 callsubr
          326 -451 -80 callgsubr
        </CharString>
        <CharString name="dollar">
          71 780 571 rmoveto
          114 -45 46 -45 -74 vvcurveto
          -104 -88 -74 -146 -6 vhcurveto
          1 663 rmoveto
          -96 40 -50 51 70 vvcurveto
          96 86 72 131 5 vhcurveto
          59 -378 rmoveto
          76 357 76 -30 49 -59 10 -79 rlinecurve
          277 hlineto
          -3 197 -141 157 -217 52 32 151 rcurveline
          -140 hlineto
          -28 -133 rlineto
          -9 -8 0 -8 hhcurveto
          -325 -215 -178 -257 -173 117 -141 209 -70 hvcurveto
          60 -20 -80 -378 -97 28 -63 63 -10 88 rlinecurve
          -284 hlineto
          7 -214 159 -155 238 -46 -30 -140 rcurveline
          140 hlineto
          27 126 rlineto
          5 5 0 5 hhcurveto
          336 228 174 281 182 -116 122 -234 79 hvcurveto
          endchar
        </CharString>
        <CharString name="dotaccent">
          -184 755 1239 -73 callsubr
        </CharString>
        <CharString name="dotaccentcmb">
          218 1239 -73 callsubr
        </CharString>
        <CharString name="dotaccentcmb.short">
          297 1607 -101 callgsubr
        </CharString>
        <CharString name="dotbelowcmb">
          -142 -460 -101 callgsubr
        </CharString>
        <CharString name="dotlessi">
          -762 28 -38 callsubr
          endchar
        </CharString>
        <CharString name="dotlessj">
          -767 541 1075 93 callsubr
          -238 -1115 rlineto
          -80 -18 -42 -37 -80 hhcurveto
          -24 -18 2 3 -19 hvcurveto
          -47 -220 rlineto
          -6 34 57 -5 35 hhcurveto
          214 144 109 202 43 hvcurveto
          endchar
        </CharString>
        <CharString name="dotmacroncmb">
          216 1221 -7 callsubr
        </CharString>
        <CharString name="dotmacroncmb.short">
          284 1554 16 callsubr
        </CharString>
        <CharString name="doublebreve">
          -453 350 1788 rmoveto
          -5 -20 -2 -19 -18 vvcurveto
          -135 113 -86 190 216 163 111 167 35 vhcurveto
          -210 hlineto
          -71 -18 -65 -44 -87 hhcurveto
          -77 -46 35 58 7 1 7 1 8 103 callsubr
          210 hlineto
          71 18 66 44 86 70 callgsubr
          -113 86 -190 -216 -162 -111 -167 -36 vhcurveto
          endchar
        </CharString>
        <CharString name="doublebreve.short">
          -453 427 -5 callsubr
          endchar
        </CharString>
        <CharString name="dzecyrillic">
          -192 178 -100 callsubr
          endchar
        </CharString>
        <CharString name="dzhecyrillic">
          -69 1009 hmoveto
          228 1075 37 callsubr
          361 hlineto
          -59 -278 rlineto
          259 hlineto
          60 278 rlineto
          endchar
        </CharString>
        <CharString name="e">
          -107 394 653 -107 callsubr
          endchar
        </CharString>
        <CharString name="eacute">
          -107 394 653 -107 callsubr
          285 1269 -78 callgsubr
          endchar
        </CharString>
        <CharString name="ebreve">
          -107 394 653 -107 callsubr
          -148 1577 -81 callsubr
          endchar
        </CharString>
        <CharString name="ecaron">
          -107 394 653 -107 callsubr
          259 1258 -82 callgsubr
        </CharString>
        <CharString name="ecedilla">
          -107 394 653 rmoveto
          131 34 98 96 133 hhcurveto
          135 68 -91 -106 -10 -1 -13 -1 -7 hvcurveto
          255 -181 rmoveto
          11 51 4 64 52 vvcurveto
          281 -184 179 -277 -339 -232 -277 -362 -261 138 -178 240 -38 vhcurveto
          -69 -102 -22 -101 rlineto
          58 hlineto
          96 37 -15 -36 -37 -42 -20 -76 -45 -46 7 11 -34 hvcurveto
          -29 -140 rlineto
          -12 34 64 -9 59 hhcurveto
          169 118 91 128 89 -59 53 -104 5 hvcurveto
          57 85 225 24 166 144 50 194 rlinecurve
          -269 hlineto
          -86 -33 -83 -58 -114 hhcurveto
          -136 -85 98 142 11 1 11 1 12 hvcurveto
          endchar
        </CharString>
        <CharString name="ecedillabreve">
          -107 958 1553 rmoveto
          -107 -25 -86 -65 -104 hhcurveto
          -90 -55 49 83 14 3 14 3 12 hvcurveto
          -179 hlineto
          -5 -21 -3 -21 -21 vvcurveto
          -154 128 -106 172 224 155 125 198 45 vhcurveto
          -747 -900 rmoveto
          131 34 98 96 133 hhcurveto
          135 68 -91 -106 -10 -1 -13 -1 -7 hvcurveto
          -453 -772 rmoveto
          -22 -101 rlineto
          58 hlineto
          96 37 -15 -36 -37 -42 -20 -76 -45 -46 7 11 -34 hvcurveto
          -29 -140 rlineto
          -12 34 64 -9 59 hhcurveto
          169 118 91 128 89 -59 53 -104 5 hvcurveto
          57 85 225 24 166 144 50 194 rlinecurve
          -269 hlineto
          -86 -33 -83 -58 -114 hhcurveto
          -136 -85 98 142 11 1 11 1 12 hvcurveto
          750 hlineto
          11 51 4 64 52 vvcurveto
          281 -184 179 -277 -339 -232 -277 -362 -261 138 -178 240 -38 vhcurveto
          endchar
        </CharString>
        <CharString name="ecircumflex">
          -107 394 653 -107 callsubr
          321 1578 -65 callsubr
        </CharString>
        <CharString name="ecircumflexacute">
          -107 394 653 -107 callsubr
          298 1558 -67 callgsubr
          -125 363 -26 callsubr
          endchar
        </CharString>
        <CharString name="ecircumflexbelow">
          -107 394 653 -107 callsubr
          73 -141 -94 callgsubr
          216 hlineto
          endchar
        </CharString>
        <CharString name="ecircumflexdotbelow">
          -107 394 653 -107 callsubr
          321 1578 -79 callgsubr
          -582 -1694 -101 callgsubr
        </CharString>
        <CharString name="ecircumflexgrave">
          -107 394 653 -107 callsubr
          634 1606 -32 callgsubr
          -140 -48 -67 callgsubr
          endchar
        </CharString>
        <CharString name="ecircumflexhookabove">
          -107 394 653 -107 callsubr
          325 1791 -54 callsubr
        </CharString>
        <CharString name="ecircumflextilde">
          -107 394 653 -107 callsubr
          295 1547 rmoveto
          -225 hlineto
          -328 -300 rlineto
          237 hlineto
          185 171 rlineto
          7 hlineto
          112 -171 rlineto
          212 hlineto
          -136 378 -62 callgsubr
        </CharString>
        <CharString name="ecyrillic">
          -4 callsubr
          endchar
        </CharString>
        <CharString name="edblgrave">
          -107 394 653 -107 callsubr
          86 1269 -44 callgsubr
        </CharString>
        <CharString name="edieresis">
          -107 394 653 -107 callsubr
          -31 1261 -105 callgsubr
        </CharString>
        <CharString name="edotaccent">
          -107 394 653 -107 callsubr
          164 1263 -73 callsubr
        </CharString>
        <CharString name="edotbelow">
          -107 394 653 -107 callsubr
          -65 -436 -101 callgsubr
        </CharString>
        <CharString name="efcyrillic">
          350 794 -350 rmoveto
          71 332 rlineto
          431 8 286 259 384 vvcurveto
          271 -188 180 -294 10 vhcurveto
          70 326 rlineto
          -282 hlineto
          -69 -324 rlineto
          -432 -8 -285 -259 -383 vvcurveto
          -272 188 -180 293 -10 vhcurveto
          -71 -334 rlineto
          778 958 rmoveto
          -226 -158 -168 -223 -9 vhcurveto
          143 667 rlineto
          149 -5 89 -99 -160 vvcurveto
          -896 -138 rmoveto
          226 157 169 223 9 vhcurveto
          -143 -668 rlineto
          -148 5 -89 99 160 vvcurveto
          endchar
        </CharString>
        <CharString name="egrave">
          -107 394 653 -107 callsubr
          242 1269 -39 callsubr
        </CharString>
        <CharString name="ehookabove">
          -107 394 653 -107 callsubr
          16 1504 -71 callgsubr
        </CharString>
        <CharString name="eight">
          81 1260 -30 callgsubr
        </CharString>
        <CharString name="eight.dnum">
          -526 651 189 -69 callgsubr
        </CharString>
        <CharString name="eight.numr">
          -525 809 928 -69 callgsubr
        </CharString>
        <CharString name="eight.subs">
          -525 579 -151 -69 callgsubr
        </CharString>
        <CharString name="eight.sups">
          -525 884 1281 -69 callgsubr
        </CharString>
        <CharString name="eight.tnum">
          71 1255 -30 callgsubr
        </CharString>
        <CharString name="einvertedbreve">
          -107 394 653 -107 callsubr
          486 1243 -59 callsubr
        </CharString>
        <CharString name="elcyrillic">
          -102 497 504 -52 callsubr
        </CharString>
        <CharString name="ellipsis">
          385 72 callgsubr
          535 hmoveto
          0 callsubr
          535 hmoveto
          0 callsubr
          endchar
        </CharString>
        <CharString name="emacron">
          -107 394 653 -107 callsubr
          505 1454 -77 callgsubr
        </CharString>
        <CharString name="emacronacute">
          -107 394 653 -107 callsubr
          85 1610 -26 callsubr
          144 -465 -77 callgsubr
        </CharString>
        <CharString name="emacrongrave">
          -107 394 653 -107 callsubr
          319 1606 -32 callgsubr
          373 -174 -77 callgsubr
        </CharString>
        <CharString name="emcyrillic">
          263 297 22 callgsubr
        </CharString>
        <CharString name="emdash">
          793 22 451 87 callsubr
        </CharString>
        <CharString name="emdash.uc">
          793 53 592 87 callsubr
        </CharString>
        <CharString name="emquad">
          717 endchar
        </CharString>
        <CharString name="emspace">
          742 endchar
        </CharString>
        <CharString name="encyrillic">
          -60 27 hmoveto
          -38 callgsubr
        </CharString>
        <CharString name="endash">
          -231 22 451 96 callgsubr
        </CharString>
        <CharString name="endash.uc">
          -231 53 592 96 callgsubr
        </CharString>
        <CharString name="enquad">
          -307 endchar
        </CharString>
        <CharString name="enspace">
          -17 endchar
        </CharString>
</ttFont>
